# Kabbalah adventure: fence-section
# Roy revised fence; separate solid front logs and rear rails; open entrance; actual world coordinates.
# Actual runtime triangles; +Y up; metres; no image planes or textures.
# Base inks are semantic materials. The game maps them to its discrete lighting palette.
mtllib fence-section.mtl
v 189.31454 -5.52 185.14
v 190.52546 -5.52 185.14
v 190.685278 -1.619523 185.14
v 189.514722 -1.619523 185.14
v 190.851477 -5.52 186
v 191.000428 -1.619523 186
v 190.52546 -5.52 186.86
v 190.685278 -1.619523 186.86
v 189.31454 -5.52 186.86
v 189.514722 -1.619523 186.86
v 188.988523 -5.52 186
v 189.199572 -1.619523 186
v 190.55546 6.042129 185.14
v 189.34454 6.042129 185.14
v 190.881477 6.042129 186
v 190.55546 6.042129 186.86
v 189.34454 6.042129 186.86
v 189.018523 6.042129 186
v 190.256731 7.853065 185.5184
v 189.503269 7.853065 185.5184
v 190.459586 7.853065 186
v 190.256731 7.853065 186.4816
v 189.503269 7.853065 186.4816
v 189.300414 7.853065 186
v 190.202184 8.410276 185.6904
v 189.717816 8.410276 185.6904
v 190.332591 8.410276 186
v 190.202184 8.410276 186.3096
v 189.717816 8.410276 186.3096
v 189.587409 8.410276 186
v 189.96 8.410276 186
v 190.026911 -5.03244 185.134
v 190.158282 -3.848367 185.134
v 190.003111 -3.848367 185.134
v 190.343961 -1.201614 185.134
v 190.191503 -1.201614 185.134
v 190.241739 1.445138 185.134
v 190.028133 1.445138 185.134
v 190.240317 4.09189 185.134
v 190.144266 4.09189 185.134
v 190.026574 6.738643 185.134
v 190.026911 -5.03244 186.866
v 190.135006 -3.848367 186.866
v 190.026387 -3.848367 186.866
v 190.321092 -1.201614 186.866
v 190.214371 -1.201614 186.866
v 190.209698 1.445138 186.866
v 190.060174 1.445138 186.866
v 190.22591 4.09189 186.866
v 190.158673 4.09189 186.866
v 190.026574 6.738643 186.866
v 195.513462 -5.52 185.14
v 196.826538 -5.52 185.14
v 196.984654 -1.734495 185.14
v 195.715346 -1.734495 185.14
v 197.180059 -5.52 186
v 197.32639 -1.734495 186
v 196.826538 -5.52 186.86
v 196.984654 -1.734495 186.86
v 195.513462 -5.52 186.86
v 195.715346 -1.734495 186.86
v 195.159941 -5.52 186
v 195.37361 -1.734495 186
v 196.856538 5.701317 185.14
v 195.543462 5.701317 185.14
v 197.210059 5.701317 186
v 196.856538 5.701317 186.86
v 195.543462 5.701317 186.86
v 195.189941 5.701317 186
v 196.538513 7.458873 185.5184
v 195.721487 7.458873 185.5184
v 196.758481 7.458873 186
v 196.538513 7.458873 186.4816
v 195.721487 7.458873 186.4816
v 195.501519 7.458873 186
v 196.472615 7.999659 185.6904
v 195.947385 7.999659 185.6904
v 196.614024 7.999659 186
v 196.472615 7.999659 186.3096
v 195.947385 7.999659 186.3096
v 195.805976 7.999659 186
v 196.21 7.999659 186
v 196.391738 -4.979214 185.134
v 196.466591 -3.627248 185.134
v 196.363295 -3.627248 185.134
v 196.492897 -0.923316 185.134
v 196.301784 -0.923316 185.134
v 196.556361 1.104633 185.134
v 196.414899 1.104633 185.134
v 196.416563 3.673368 185.134
v 196.273438 3.673368 185.134
v 196.351651 6.106907 185.134
v 196.391738 -4.979214 186.866
v 196.451096 -3.627248 186.866
v 196.37879 -3.627248 186.866
v 196.46423 -0.923316 186.866
v 196.330451 -0.923316 186.866
v 196.535142 1.104633 186.866
v 196.436118 1.104633 186.866
v 196.395094 3.673368 186.866
v 196.294906 3.673368 186.866
v 196.351651 6.106907 186.866
v 201.716843 -5.52 185.14
v 203.123157 -5.52 185.14
v 203.279718 -1.866806 185.14
v 201.920282 -1.866806 185.14
v 203.50178 -5.52 186
v 203.64572 -1.866806 186
v 203.123157 -5.52 186.86
v 203.279718 -1.866806 186.86
v 201.716843 -5.52 186.86
v 201.920282 -1.866806 186.86
v 201.33822 -5.52 186
v 201.55428 -1.866806 186
v 203.153157 5.309112 185.14
v 201.746843 5.309112 185.14
v 203.53178 5.309112 186
v 203.153157 5.309112 186.86
v 201.746843 5.309112 186.86
v 201.36822 5.309112 186
v 202.81752 7.005238 185.5184
v 201.94248 7.005238 185.5184
v 203.053107 7.005238 186
v 202.81752 7.005238 186.4816
v 201.94248 7.005238 186.4816
v 201.706893 7.005238 186
v 202.741263 7.527123 185.6904
v 202.178737 7.527123 185.6904
v 202.892712 7.527123 186
v 202.741263 7.527123 186.3096
v 202.178737 7.527123 186.3096
v 202.027288 7.527123 186
v 202.46 7.527123 186
v 202.672733 -4.932879 185.134
v 202.85947 -4.215288 185.134
v 202.66493 -4.215288 185.134
v 202.828522 -1.736334 185.134
v 202.58367 -1.736334 185.134
v 202.773464 0.351205 185.134
v 202.636072 0.351205 185.134
v 202.657365 2.699687 185.134
v 202.490653 2.699687 185.134
v 202.698683 5.178641 185.134
v 202.62841 5.178641 185.134
v 202.535534 6.22241 185.134
v 202.672733 -4.932879 186.866
v 202.830289 -4.215288 186.866
v 202.694111 -4.215288 186.866
v 202.791794 -1.736334 186.866
v 202.620398 -1.736334 186.866
v 202.752856 0.351205 186.866
v 202.656681 0.351205 186.866
v 202.632358 2.699687 186.866
v 202.51566 2.699687 186.866
v 202.688142 5.178641 186.866
v 202.638951 5.178641 186.866
v 202.535534 6.22241 186.866
v 208.080043 -5.52 185.14
v 209.259957 -5.52 185.14
v 209.420292 -1.599723 185.14
v 208.279708 -1.599723 185.14
v 209.577626 -5.52 186
v 209.727372 -1.599723 186
v 209.259957 -5.52 186.86
v 209.420292 -1.599723 186.86
v 208.080043 -5.52 186.86
v 208.279708 -1.599723 186.86
v 207.762374 -5.52 186
v 207.972628 -1.599723 186
v 209.289957 6.100822 185.14
v 208.110043 6.100822 185.14
v 209.607626 6.100822 186
v 209.289957 6.100822 186.86
v 208.110043 6.100822 186.86
v 207.792374 6.100822 186
v 208.997084 7.920951 185.5184
v 208.262916 7.920951 185.5184
v 209.194745 7.920951 186
v 208.997084 7.920951 186.4816
v 208.262916 7.920951 186.4816
v 208.065255 7.920951 186
v 208.945983 8.48099 185.6904
v 208.474017 8.48099 185.6904
v 209.07305 8.48099 186
v 208.945983 8.48099 186.3096
v 208.474017 8.48099 186.3096
v 208.34695 8.48099 186
v 208.71 8.48099 186
v 208.77475 -5.029965 185.134
v 208.904156 -3.839881 185.134
v 208.752958 -3.839881 185.134
v 209.087505 -1.179693 185.134
v 208.93895 -1.179693 185.134
v 208.986574 1.480495 185.134
v 208.778437 1.480495 185.134
v 208.983861 4.140683 185.134
v 208.890269 4.140683 185.134
v 208.773924 6.800871 185.134
v 208.77475 -5.029965 186.866
v 208.881476 -3.839881 186.866
v 208.775638 -3.839881 186.866
v 209.065222 -1.179693 186.866
v 208.961233 -1.179693 186.866
v 208.955353 1.480495 186.866
v 208.809657 1.480495 186.866
v 208.969822 4.140683 186.866
v 208.904308 4.140683 186.866
v 208.773924 6.800871 186.866
v 214.225817 -5.52 185.14
v 215.614183 -5.52 185.14
v 215.771044 -1.774464 185.14
v 214.428956 -1.774464 185.14
v 215.987974 -5.52 186
v 216.132375 -1.774464 186
v 215.614183 -5.52 186.86
v 215.771044 -1.774464 186.86
v 214.225817 -5.52 186.86
v 214.428956 -1.774464 186.86
v 213.852026 -5.52 186
v 214.067625 -1.774464 186
v 215.644183 5.58284 185.14
v 214.255817 5.58284 185.14
v 216.017974 5.58284 186
v 215.644183 5.58284 186.86
v 214.255817 5.58284 186.86
v 213.882026 5.58284 186
v 215.311936 7.321839 185.5184
v 214.448064 7.321839 185.5184
v 215.544517 7.321839 186
v 215.311936 7.321839 186.4816
v 214.448064 7.321839 186.4816
v 214.215483 7.321839 186
v 215.237673 7.856915 185.6904
v 214.682327 7.856915 185.6904
v 215.38719 7.856915 186
v 215.237673 7.856915 186.3096
v 214.682327 7.856915 186.3096
v 214.53281 7.856915 186
v 214.96 7.856915 186
v 215.152978 -4.984923 185.134
v 215.228436 -3.647232 185.134
v 215.119218 -3.647232 185.134
v 215.252028 -0.971849 185.134
v 215.049958 -0.971849 185.134
v 215.321478 1.034688 185.134
v 215.171904 1.034688 185.134
v 215.176635 3.576302 185.134
v 215.025303 3.576302 185.134
v 215.111272 5.984147 185.134
v 215.152978 -4.984923 186.866
v 215.212054 -3.647232 186.866
v 215.135601 -3.647232 186.866
v 215.221718 -0.971849 186.866
v 215.080269 -0.971849 186.866
v 215.299042 1.034688 186.866
v 215.19434 1.034688 186.866
v 215.153935 3.576302 186.866
v 215.048003 3.576302 186.866
v 215.111272 5.984147 186.866
v 220.501504 -5.52 185.14
v 221.838496 -5.52 185.14
v 221.996213 -1.840656 185.14
v 220.703787 -1.840656 185.14
v 222.198455 -5.52 186
v 222.344174 -1.840656 186
v 221.838496 -5.52 186.86
v 221.996213 -1.840656 186.86
v 220.501504 -5.52 186.86
v 220.703787 -1.840656 186.86
v 220.141545 -5.52 186
v 220.355826 -1.840656 186
v 221.868496 5.386627 185.14
v 220.531504 5.386627 185.14
v 222.228455 5.386627 186
v 221.868496 5.386627 186.86
v 220.531504 5.386627 186.86
v 220.171545 5.386627 186
v 221.545953 7.094894 185.5184
v 220.714047 7.094894 185.5184
v 221.769928 7.094894 186
v 221.545953 7.094894 186.4816
v 220.714047 7.094894 186.4816
v 220.490072 7.094894 186
v 221.477398 7.620514 185.6904
v 220.942602 7.620514 185.6904
v 221.621382 7.620514 186
v 221.477398 7.620514 186.3096
v 220.942602 7.620514 186.3096
v 220.798618 7.620514 186
v 221.21 7.620514 186
v 221.411701 -4.928677 185.134
v 221.590976 -4.205949 185.134
v 221.406026 -4.205949 185.134
v 221.567123 -1.709251 185.134
v 221.33434 -1.709251 185.134
v 221.512628 0.393231 185.134
v 221.382008 0.393231 185.134
v 221.399832 2.758524 185.134
v 221.241338 2.758524 185.134
v 221.436559 5.255222 185.134
v 221.36975 5.255222 185.134
v 221.27946 6.306463 185.134
v 221.411701 -4.928677 186.866
v 221.563234 -4.205949 186.866
v 221.433768 -4.205949 186.866
v 221.532205 -1.709251 186.866
v 221.369258 -1.709251 186.866
v 221.493035 0.393231 186.866
v 221.401601 0.393231 186.866
v 221.376058 2.758524 186.866
v 221.265112 2.758524 186.866
v 221.426538 5.255222 186.866
v 221.379771 5.255222 186.866
v 221.27946 6.306463 186.866
v 226.821501 -5.52 185.14
v 228.018499 -5.52 185.14
v 228.178549 -1.589817 185.14
v 227.021451 -1.589817 185.14
v 228.340768 -5.52 186
v 228.490076 -1.589817 186
v 228.018499 -5.52 186.86
v 228.178549 -1.589817 186.86
v 226.821501 -5.52 186.86
v 227.021451 -1.589817 186.86
v 226.499232 -5.52 186
v 226.709924 -1.589817 186
v 228.048499 6.130185 185.14
v 226.851501 6.130185 185.14
v 228.370768 6.130185 186
v 228.048499 6.130185 186.86
v 226.851501 6.130185 186.86
v 226.529232 6.130185 186
v 227.752399 7.954912 185.5184
v 227.007601 7.954912 185.5184
v 227.952922 7.954912 186
v 227.752399 7.954912 186.4816
v 227.007601 7.954912 186.4816
v 226.807078 7.954912 186
v 227.6994 8.516367 185.6904
v 227.2206 8.516367 185.6904
v 227.828307 8.516367 186
v 227.6994 8.516367 186.3096
v 227.2206 8.516367 186.3096
v 227.091693 8.516367 186
v 227.46 8.516367 186
v 227.525941 -5.028727 185.134
v 227.656429 -3.835636 185.134
v 227.503042 -3.835636 185.134
v 227.841062 -1.168726 185.134
v 227.690357 -1.168726 185.134
v 227.73942 1.498184 185.134
v 227.528269 1.498184 185.134
v 227.737419 4.165093 185.134
v 227.642471 4.165093 185.134
v 227.525384 6.832003 185.134
v 227.525941 -5.028727 186.866
v 227.633421 -3.835636 186.866
v 227.52605 -3.835636 186.866
v 227.818456 -1.168726 186.866
v 227.712962 -1.168726 186.866
v 227.707747 1.498184 186.866
v 227.559942 1.498184 186.866
v 227.723177 4.165093 186.866
v 227.656713 4.165093 186.866
v 227.525384 6.832003 186.866
v 251.702208 -5.52 185.14
v 253.137792 -5.52 185.14
v 253.293866 -1.84446 185.14
v 251.906134 -1.84446 185.14
v 253.524296 -5.52 186
v 253.667486 -1.84446 186
v 253.137792 -5.52 186.86
v 253.293866 -1.84446 186.86
v 251.702208 -5.52 186.86
v 251.906134 -1.84446 186.86
v 251.315704 -5.52 186
v 251.532514 -1.84446 186
v 253.167792 5.37535 185.14
v 251.732208 5.37535 185.14
v 253.554296 5.37535 186
v 253.167792 5.37535 186.86
v 251.732208 5.37535 186.86
v 251.345704 5.37535 186
v 252.826626 7.081851 185.5184
v 251.933374 7.081851 185.5184
v 253.067117 7.081851 186
v 252.826626 7.081851 186.4816
v 251.933374 7.081851 186.4816
v 251.692883 7.081851 186
v 252.747117 7.606928 185.6904
v 252.172883 7.606928 185.6904
v 252.901718 7.606928 186
v 252.747117 7.606928 186.3096
v 252.172883 7.606928 186.3096
v 252.018282 7.606928 186
v 252.46 7.606928 186
v 252.660027 -4.994923 185.134
v 252.735865 -3.68223 185.134
v 252.622933 -3.68223 185.134
v 252.757755 -1.056844 185.134
v 252.548813 -1.056844 185.134
v 252.830958 0.912195 185.134
v 252.676298 0.912195 185.134
v 252.682951 3.406311 185.134
v 252.526472 3.406311 185.134
v 252.617306 5.769158 185.134
v 252.660027 -4.994923 186.866
v 252.718925 -3.68223 186.866
v 252.639873 -3.68223 186.866
v 252.726414 -1.056844 186.866
v 252.580154 -1.056844 186.866
v 252.807759 0.912195 186.866
v 252.699497 0.912195 186.866
v 252.659479 3.406311 186.866
v 252.549944 3.406311 186.866
v 252.617306 5.769158 186.866
v 258.070946 -5.52 185.14
v 259.269054 -5.52 185.14
v 259.429086 -1.769403 185.14
v 258.270914 -1.769403 185.14
v 259.591622 -5.52 186
v 259.740901 -1.769403 186
v 259.269054 -5.52 186.86
v 259.429086 -1.769403 186.86
v 258.070946 -5.52 186.86
v 258.270914 -1.769403 186.86
v 257.748378 -5.52 186
v 257.959099 -1.769403 186
v 259.299054 5.597842 185.14
v 258.100946 5.597842 185.14
v 259.621622 5.597842 186
v 259.299054 5.597842 186.86
v 258.100946 5.597842 186.86
v 257.778378 5.597842 186
v 259.002745 7.33919 185.5184
v 258.257255 7.33919 185.5184
v 259.203454 7.33919 186
v 259.002745 7.33919 186.4816
v 258.257255 7.33919 186.4816
v 258.056546 7.33919 186
v 258.949622 7.87499 185.6904
v 258.470378 7.87499 185.6904
v 259.078649 7.87499 186
v 258.949622 7.87499 186.3096
v 258.470378 7.87499 186.3096
v 258.341351 7.87499 186
v 258.71 7.87499 186
v 258.889599 -4.917225 185.134
v 259.053924 -4.180501 185.134
v 258.888186 -4.180501 185.134
v 259.044285 -1.635453 185.134
v 258.835684 -1.635453 185.134
v 258.990919 0.507745 185.134
v 258.873867 0.507745 185.134
v 258.88474 2.918844 185.134
v 258.74271 2.918844 185.134
v 258.912269 5.463892 185.134
v 258.8524 5.463892 185.134
v 258.767291 6.535491 185.134
v 258.889599 -4.917225 186.866
v 259.029063 -4.180501 186.866
v 258.913046 -4.180501 186.866
v 259.012995 -1.635453 186.866
v 258.866974 -1.635453 186.866
v 258.973361 0.507745 186.866
v 258.891425 0.507745 186.866
v 258.863435 2.918844 186.866
v 258.764014 2.918844 186.866
v 258.903289 5.463892 186.866
v 258.86138 5.463892 186.866
v 258.767291 6.535491 186.866
v 264.252575 -5.52 185.14
v 265.587425 -5.52 185.14
v 265.745178 -1.601737 185.14
v 264.454822 -1.601737 185.14
v 265.946808 -5.52 186
v 266.092581 -1.601737 186
v 265.587425 -5.52 186.86
v 265.745178 -1.601737 186.86
v 264.252575 -5.52 186.86
v 264.454822 -1.601737 186.86
v 263.893192 -5.52 186
v 264.107419 -1.601737 186
v 265.617425 6.094851 185.14
v 264.282575 6.094851 185.14
v 265.976808 6.094851 186
v 265.617425 6.094851 186.86
v 264.282575 6.094851 186.86
v 263.923192 6.094851 186
v 265.295287 7.914045 185.5184
v 264.464713 7.914045 185.5184
v 265.518903 7.914045 186
v 265.295287 7.914045 186.4816
v 264.464713 7.914045 186.4816
v 264.241097 7.914045 186
v 265.22697 8.473797 185.6904
v 264.69303 8.473797 185.6904
v 265.370723 8.473797 186
v 265.22697 8.473797 186.3096
v 264.69303 8.473797 186.3096
v 264.549277 8.473797 186
v 264.96 8.473797 186
v 265.03555 -5.030217 185.134
v 265.174773 -3.840744 185.134
v 265.003722 -3.840744 185.134
v 265.369766 -1.181923 185.134
v 265.201705 -1.181923 185.134
v 265.262386 1.476898 185.134
v 265.026918 1.476898 185.134
v 265.266122 4.13572 185.134
v 265.16024 4.13572 185.134
v 265.037167 6.794541 185.134
v 265.03555 -5.030217 186.866
v 265.149116 -3.840744 186.866
v 265.029379 -3.840744 186.866
v 265.344557 -1.181923 186.866
v 265.226914 -1.181923 186.866
v 265.227066 1.476898 186.866
v 265.062239 1.476898 186.866
v 265.25024 4.13572 186.866
v 265.176122 4.13572 186.866
v 265.037167 6.794541 186.866
v 270.474945 -5.52 185.14
v 271.865055 -5.52 185.14
v 272.021887 -1.869551 185.14
v 270.678113 -1.869551 185.14
v 272.239316 -5.52 186
v 272.383672 -1.869551 186
v 271.865055 -5.52 186.86
v 272.021887 -1.869551 186.86
v 270.474945 -5.52 186.86
v 270.678113 -1.869551 186.86
v 270.100684 -5.52 186
v 270.316328 -1.869551 186
v 271.895055 5.300974 185.14
v 270.504945 5.300974 185.14
v 272.269316 5.300974 186
v 271.895055 5.300974 186.86
v 270.504945 5.300974 186.86
v 270.130684 5.300974 186
v 271.562479 6.995825 185.5184
v 270.697521 6.995825 185.5184
v 271.795352 6.995825 186
v 271.562479 6.995825 186.4816
v 270.697521 6.995825 186.4816
v 270.464648 6.995825 186
v 271.488022 7.517318 185.6904
v 270.931978 7.517318 185.6904
v 271.637726 7.517318 186
v 271.488022 7.517318 186.3096
v 270.931978 7.517318 186.3096
v 270.782274 7.517318 186
v 271.21 7.517318 186
v 271.403238 -4.998507 185.134
v 271.478711 -3.694776 185.134
v 271.369355 -3.694776 185.134
v 271.50224 -1.087312 185.134
v 271.299916 -1.087312 185.134
v 271.571828 0.868286 185.134
v 271.422067 0.868286 185.134
v 271.426868 3.345376 185.134
v 271.275346 3.345376 185.134
v 271.361495 5.692093 185.134
v 271.403238 -4.998507 186.866
v 271.462307 -3.694776 186.866
v 271.385759 -3.694776 186.866
v 271.471891 -1.087312 186.866
v 271.330264 -1.087312 186.866
v 271.549364 0.868286 186.866
v 271.444531 0.868286 186.866
v 271.40414 3.345376 186.866
v 271.298074 3.345376 186.866
v 271.361495 5.692093 186.866
v 276.830134 -5.52 185.14
v 278.009866 -5.52 185.14
v 278.170203 -1.729325 185.14
v 277.029797 -1.729325 185.14
v 278.327486 -5.52 186
v 278.477236 -1.729325 186
v 278.009866 -5.52 186.86
v 278.170203 -1.729325 186.86
v 276.830134 -5.52 186.86
v 277.029797 -1.729325 186.86
v 276.512514 -5.52 186
v 276.722764 -1.729325 186
v 278.039866 5.716644 185.14
v 276.860134 5.716644 185.14
v 278.357486 5.716644 186
v 278.039866 5.716644 186.86
v 276.860134 5.716644 186.86
v 276.542514 5.716644 186
v 277.747028 7.4766 185.5184
v 277.012972 7.4766 185.5184
v 277.944658 7.4766 186
v 277.747028 7.4766 186.4816
v 277.012972 7.4766 186.4816
v 276.815342 7.4766 186
v 277.695946 8.018125 185.6904
v 277.224054 8.018125 185.6904
v 277.822994 8.018125 186
v 277.695946 8.018125 186.3096
v 277.224054 8.018125 186.3096
v 277.097006 8.018125 186
v 277.46 8.018125 186
v 277.636674 -4.910784 185.134
v 277.799021 -4.166187 185.134
v 277.635825 -4.166187 185.134
v 277.791263 -1.593944 185.134
v 277.585862 -1.593944 185.134
v 277.738046 0.572156 185.134
v 277.62279 0.572156 185.134
v 277.632743 3.009019 185.134
v 277.492891 3.009019 185.134
v 277.659055 5.581263 185.134
v 277.600104 5.581263 185.134
v 277.51568 6.664313 185.134
v 277.636674 -4.910784 186.866
v 277.774542 -4.166187 186.866
v 277.660304 -4.166187 186.866
v 277.760453 -1.593944 186.866
v 277.616672 -1.593944 186.866
v 277.720758 0.572156 186.866
v 277.640078 0.572156 186.866
v 277.611765 3.009019 186.866
v 277.513869 3.009019 186.866
v 277.650213 5.581263 186.866
v 277.608947 5.581263 186.866
v 277.51568 6.664313 186.866
v 282.967594 -5.52 185.14
v 284.372406 -5.52 185.14
v 284.528993 -1.622721 185.14
v 283.171007 -1.622721 185.14
v 284.750625 -5.52 186
v 284.894604 -1.622721 186
v 284.372406 -5.52 186.86
v 284.528993 -1.622721 186.86
v 282.967594 -5.52 186.86
v 283.171007 -1.622721 186.86
v 282.589375 -5.52 186
v 282.805396 -1.622721 186
v 284.402406 6.032647 185.14
v 282.997594 6.032647 185.14
v 284.780625 6.032647 186
v 284.402406 6.032647 186.86
v 282.997594 6.032647 186.86
v 282.619375 6.032647 186
v 284.067053 7.842098 185.5184
v 283.192947 7.842098 185.5184
v 284.302389 7.842098 186
v 284.067053 7.842098 186.4816
v 283.192947 7.842098 186.4816
v 282.957611 7.842098 186
v 283.990962 8.398852 185.6904
v 283.429038 8.398852 185.6904
v 284.14225 8.398852 186
v 283.990962 8.398852 186.3096
v 283.429038 8.398852 186.3096
v 283.27775 8.398852 186
v 283.71 8.398852 186
v 283.790427 -5.03284 185.134
v 283.934083 -3.849738 185.134
v 283.754067 -3.849738 185.134
v 284.134334 -1.205156 185.134
v 283.957464 -1.205156 185.134
v 284.024042 1.439426 185.134
v 283.776233 1.439426 185.134
v 284.030689 4.084008 185.134
v 283.919258 4.084008 185.134
v 283.793146 6.72859 185.134
v 283.790427 -5.03284 186.866
v 283.907081 -3.849738 186.866
v 283.781069 -3.849738 186.866
v 284.107804 -1.205156 186.866
v 283.983995 -1.205156 186.866
v 283.98687 1.439426 186.866
v 283.813404 1.439426 186.866
v 284.013975 4.084008 186.866
v 283.935973 4.084008 186.866
v 283.793146 6.72859 186.866
v 289.26237 -5.52 185.14
v 290.57763 -5.52 185.14
v 290.735709 -1.885504 185.14
v 289.464291 -1.885504 185.14
v 290.931738 -5.52 186
v 291.078013 -1.885504 186
v 290.57763 -5.52 186.86
v 290.735709 -1.885504 186.86
v 289.26237 -5.52 186.86
v 289.464291 -1.885504 186.86
v 288.908262 -5.52 186
v 289.121987 -1.885504 186
v 290.60763 5.253685 185.14
v 289.29237 5.253685 185.14
v 290.961738 5.253685 186
v 290.60763 5.253685 186.86
v 289.29237 5.253685 186.86
v 288.938262 5.253685 186
v 290.289192 6.941129 185.5184
v 289.470808 6.941129 185.5184
v 290.509526 6.941129 186
v 290.289192 6.941129 186.4816
v 289.470808 6.941129 186.4816
v 289.250474 6.941129 186
v 290.223052 7.460343 185.6904
v 289.696948 7.460343 185.6904
v 290.364695 7.460343 186
v 290.223052 7.460343 186.3096
v 289.696948 7.460343 186.3096
v 289.555305 7.460343 186
v 289.96 7.460343 186
v 290.142064 -5.000786 185.134
v 290.216934 -3.702752 185.134
v 290.113467 -3.702752 185.134
v 290.243161 -1.106683 185.134
v 290.051731 -1.106683 185.134
v 290.306799 0.840368 185.134
v 290.165102 0.840368 185.134
v 290.166855 3.306633 185.134
v 290.023492 3.306633 185.134
v 290.10193 5.643095 185.134
v 290.142064 -5.000786 186.866
v 290.201414 -3.702752 186.866
v 290.128987 -3.702752 186.866
v 290.214447 -1.106683 186.866
v 290.080446 -1.106683 186.866
v 290.285545 0.840368 186.866
v 290.186357 0.840368 186.866
v 290.14535 3.306633 186.866
v 290.044996 3.306633 186.866
v 290.10193 5.643095 186.866
v 190 -0.964179 186.795
v 190 -2.414179 186.795
v 196.25 -2.314179 186.795
v 190 -0.964179 187.845
v 190 -2.414179 187.845
v 196.25 -2.314179 187.845
v 196.25 -0.964179 186.795
v 196.25 -0.964179 187.845
v 190 2.910982 186.795
v 190 1.460982 186.795
v 196.25 1.560982 186.795
v 190 2.910982 187.845
v 190 1.460982 187.845
v 196.25 1.560982 187.845
v 196.25 2.910982 186.795
v 196.25 2.910982 187.845
v 190 6.592669 186.795
v 190 5.142669 186.795
v 196.25 5.242669 186.795
v 190 6.592669 187.845
v 190 5.142669 187.845
v 196.25 5.242669 187.845
v 196.25 6.592669 186.795
v 196.25 6.592669 187.845
v 196.25 -1.109989 186.795
v 196.25 -2.559989 186.795
v 202.5 -2.459989 186.795
v 196.25 -1.109989 187.845
v 196.25 -2.559989 187.845
v 202.5 -2.459989 187.845
v 202.5 -1.109989 186.795
v 202.5 -1.109989 187.845
v 196.25 2.941788 186.795
v 196.25 1.491788 186.795
v 202.5 1.591788 186.795
v 196.25 2.941788 187.845
v 196.25 1.491788 187.845
v 202.5 1.591788 187.845
v 202.5 2.941788 186.795
v 202.5 2.941788 187.845
v 196.25 6.706815 186.795
v 196.25 5.256815 186.795
v 202.5 5.356815 186.795
v 196.25 6.706815 187.845
v 196.25 5.256815 187.845
v 202.5 5.356815 187.845
v 202.5 6.706815 186.795
v 202.5 6.706815 187.845
v 202.5 -0.967646 186.795
v 202.5 -2.417646 186.795
v 208.75 -2.317646 186.795
v 202.5 -0.967646 187.845
v 202.5 -2.417646 187.845
v 208.75 -2.317646 187.845
v 208.75 -0.967646 186.795
v 208.75 -0.967646 187.845
v 202.5 2.74249 186.795
v 202.5 1.29249 186.795
v 208.75 1.39249 186.795
v 202.5 2.74249 187.845
v 202.5 1.29249 187.845
v 208.75 1.39249 187.845
v 208.75 2.74249 186.795
v 208.75 2.74249 187.845
v 202.5 6.868685 186.795
v 202.5 5.418685 186.795
v 208.75 5.518685 186.795
v 202.5 6.868685 187.845
v 202.5 5.418685 187.845
v 208.75 5.518685 187.845
v 208.75 6.868685 186.795
v 208.75 6.868685 187.845
v 208.75 -0.830148 186.795
v 208.75 -2.280148 186.795
v 215 -2.180148 186.795
v 208.75 -0.830148 187.845
v 208.75 -2.280148 187.845
v 215 -2.180148 187.845
v 215 -0.830148 186.795
v 215 -0.830148 187.845
v 208.75 2.723322 186.795
v 208.75 1.273322 186.795
v 215 1.373322 186.795
v 208.75 2.723322 187.845
v 208.75 1.273322 187.845
v 215 1.373322 187.845
v 215 2.723322 186.795
v 215 2.723322 187.845
v 208.75 6.745086 186.795
v 208.75 5.295086 186.795
v 215 5.395086 186.795
v 208.75 6.745086 187.845
v 208.75 5.295086 187.845
v 215 5.395086 187.845
v 215 6.745086 186.795
v 215 6.745086 187.845
v 215 -0.980521 186.795
v 215 -2.430521 186.795
v 221.25 -2.330521 186.795
v 215 -0.980521 187.845
v 215 -2.430521 187.845
v 221.25 -2.330521 187.845
v 221.25 -0.980521 186.795
v 221.25 -0.980521 187.845
v 215 2.92374 186.795
v 215 1.47374 186.795
v 221.25 1.57374 186.795
v 215 2.92374 187.845
v 215 1.47374 187.845
v 221.25 1.57374 187.845
v 221.25 2.92374 186.795
v 221.25 2.92374 187.845
v 215 6.590434 186.795
v 215 5.140434 186.795
v 221.25 5.240434 186.795
v 215 6.590434 187.845
v 215 5.140434 187.845
v 221.25 5.240434 187.845
v 221.25 6.590434 186.795
v 221.25 6.590434 187.845
v 221.25 -1.109237 186.795
v 221.25 -2.559237 186.795
v 227.5 -2.459237 186.795
v 221.25 -1.109237 187.845
v 221.25 -2.559237 187.845
v 227.5 -2.459237 187.845
v 227.5 -1.109237 186.795
v 227.5 -1.109237 187.845
v 221.25 2.931203 186.795
v 221.25 1.481203 186.795
v 227.5 1.581203 186.795
v 221.25 2.931203 187.845
v 221.25 1.481203 187.845
v 227.5 1.581203 187.845
v 227.5 2.931203 186.795
v 227.5 2.931203 187.845
v 221.25 6.723065 186.795
v 221.25 5.273065 186.795
v 227.5 5.373065 186.795
v 221.25 6.723065 187.845
v 221.25 5.273065 187.845
v 227.5 5.373065 187.845
v 227.5 6.723065 186.795
v 227.5 6.723065 187.845
v 252.5 -0.935303 186.795
v 252.5 -2.385303 186.795
v 258.75 -2.285303 186.795
v 252.5 -0.935303 187.845
v 252.5 -2.385303 187.845
v 258.75 -2.285303 187.845
v 258.75 -0.935303 186.795
v 258.75 -0.935303 187.845
v 252.5 2.719568 186.795
v 252.5 1.269568 186.795
v 258.75 1.369568 186.795
v 252.5 2.719568 187.845
v 252.5 1.269568 187.845
v 258.75 1.369568 187.845
v 258.75 2.719568 186.795
v 258.75 2.719568 187.845
v 252.5 6.869349 186.795
v 252.5 5.419349 186.795
v 258.75 5.519349 186.795
v 252.5 6.869349 187.845
v 252.5 5.419349 187.845
v 258.75 5.519349 187.845
v 258.75 6.869349 186.795
v 258.75 6.869349 187.845
v 258.75 -0.835439 186.795
v 258.75 -2.285439 186.795
v 265 -2.185439 186.795
v 258.75 -0.835439 187.845
v 258.75 -2.285439 187.845
v 265 -2.185439 187.845
v 265 -0.835439 186.795
v 265 -0.835439 187.845
v 258.75 2.74721 186.795
v 258.75 1.29721 186.795
v 265 1.39721 186.795
v 258.75 2.74721 187.845
v 258.75 1.29721 187.845
v 265 1.39721 187.845
v 265 2.74721 186.795
v 265 2.74721 187.845
v 258.75 6.712453 186.795
v 258.75 5.262453 186.795
v 265 5.362453 186.795
v 258.75 6.712453 187.845
v 258.75 5.262453 187.845
v 265 5.362453 187.845
v 265 6.712453 186.795
v 265 6.712453 187.845
v 265 -1.012555 186.795
v 265 -2.462555 186.795
v 271.25 -2.362555 186.795
v 265 -1.012555 187.845
v 265 -2.462555 187.845
v 271.25 -2.362555 187.845
v 271.25 -1.012555 186.795
v 271.25 -1.012555 187.845
v 265 2.945267 186.795
v 265 1.495267 186.795
v 271.25 1.595267 186.795
v 265 2.945267 187.845
v 265 1.495267 187.845
v 271.25 1.595267 187.845
v 271.25 2.945267 186.795
v 271.25 2.945267 187.845
v 265 6.591676 186.795
v 265 5.141676 186.795
v 271.25 5.241676 186.795
v 265 6.591676 187.845
v 265 5.141676 187.845
v 271.25 5.241676 187.845
v 271.25 6.591676 186.795
v 271.25 6.591676 187.845
v 271.25 -1.102076 186.795
v 271.25 -2.552076 186.795
v 277.5 -2.452076 186.795
v 271.25 -1.102076 187.845
v 271.25 -2.552076 187.845
v 277.5 -2.452076 187.845
v 277.5 -1.102076 186.795
v 277.5 -1.102076 187.845
v 271.25 2.906059 186.795
v 271.25 1.456059 186.795
v 277.5 1.556059 186.795
v 271.25 2.906059 187.845
v 271.25 1.456059 187.845
v 277.5 1.556059 187.845
v 277.5 2.906059 186.795
v 277.5 2.906059 187.845
v 271.25 6.755625 186.795
v 271.25 5.305625 186.795
v 277.5 5.405625 186.795
v 271.25 6.755625 187.845
v 271.25 5.305625 187.845
v 277.5 5.405625 187.845
v 277.5 6.755625 186.795
v 277.5 6.755625 187.845
v 277.5 -0.919732 186.795
v 277.5 -2.369732 186.795
v 283.75 -2.269732 186.795
v 277.5 -0.919732 187.845
v 277.5 -2.369732 187.845
v 283.75 -2.269732 187.845
v 283.75 -0.919732 186.795
v 283.75 -0.919732 187.845
v 277.5 2.710292 186.795
v 277.5 1.260292 186.795
v 283.75 1.360292 186.795
v 277.5 2.710292 187.845
v 277.5 1.260292 187.845
v 283.75 1.360292 187.845
v 283.75 2.710292 186.795
v 283.75 2.710292 187.845
v 277.5 6.866828 186.795
v 277.5 5.416828 186.795
v 283.75 5.516828 186.795
v 277.5 6.866828 187.845
v 277.5 5.416828 187.845
v 283.75 5.516828 187.845
v 283.75 6.866828 186.795
v 283.75 6.866828 187.845
v 283.75 -0.840859 186.795
v 283.75 -2.290859 186.795
v 290 -2.190859 186.795
v 283.75 -0.840859 187.845
v 283.75 -2.290859 187.845
v 290 -2.190859 187.845
v 290 -0.840859 186.795
v 290 -0.840859 187.845
v 283.75 2.760932 186.795
v 283.75 1.310932 186.795
v 290 1.410932 186.795
v 283.75 2.760932 187.845
v 283.75 1.310932 187.845
v 290 1.410932 187.845
v 290 2.760932 186.795
v 290 2.760932 187.845
v 283.75 6.696384 186.795
v 283.75 5.246384 186.795
v 290 5.346384 186.795
v 283.75 6.696384 187.845
v 283.75 5.246384 187.845
v 290 5.346384 187.845
v 290 6.696384 186.795
v 290 6.696384 187.845
vn 0 0 1
vn 0 0 1
vn -0.93447 0.035685 0.354248
vn -0.938247 0.038444 0.343824
vn -0.93438 0.038285 -0.354214
vn -0.938338 0.035833 -0.343857
vn 0 0 -1
vn 0 0 -1
vn 0.933871 -0.05053 -0.354021
vn 0.937853 -0.048133 -0.343679
vn 0.933991 -0.047935 0.354066
vn 0.937732 -0.050739 0.343635
vn 0 0 1
vn 0 0 1
vn -0.938841 -0.014576 0.344041
vn -0.934949 -0.015842 0.354429
vn -0.938822 -0.015907 -0.344034
vn -0.934968 -0.014516 -0.354436
vn 0 0 -1
vn 0 0 -1
vn 0.93871 0.022182 -0.343993
vn 0.934864 0.020765 -0.354397
vn 0.938737 0.020851 0.344003
vn 0.934838 0.022091 0.354387
vn 0 -0.204535 0.978859
vn 0 -0.204535 0.978859
vn -0.913639 -0.212849 0.346351
vn -0.897515 -0.227046 0.378043
vn -0.911608 -0.222588 -0.345581
vn -0.90105 -0.209916 -0.379532
vn 0 -0.204535 -0.978859
vn 0 -0.204535 -0.978859
vn 0.925316 -0.144035 -0.350777
vn 0.909739 -0.159808 -0.383192
vn 0.923888 -0.154162 0.350236
vn 0.912245 -0.142 0.384247
vn 0 -0.294948 0.955513
vn 0 -0.294948 0.955513
vn -0.901904 -0.205554 0.379891
vn -0.901904 -0.205554 0.379891
vn -0.901904 -0.205554 -0.379891
vn -0.901904 -0.205554 -0.379891
vn 0 -0.294948 -0.955513
vn 0 -0.294948 -0.955513
vn 0.832553 -0.428811 -0.35068
vn 0.832553 -0.428811 -0.35068
vn 0.832553 -0.428811 0.35068
vn 0.832553 -0.428811 0.35068
vn 0 -1 0
vn 0 -1 0
vn 0 -1 0
vn 0 -1 0
vn 0 -1 0
vn 0 -1 0
vn 0 0 1
vn 0 0 1
vn 0 0 1
vn 0 0 1
vn 0 0 1
vn 0 0 1
vn 0 0 1
vn 0 0 1
vn 0 0 1
vn 0 0 1
vn 0 0 1
vn 0 0 1
vn 0 0 1
vn 0 0 1
vn 0 0 1
vn 0 0 1
vn 0 0 1
vn 0 0 1
vn -0.924313 0.03573 0.379958
vn -0.928618 0.038787 0.369003
vn -0.924215 0.038603 -0.379917
vn -0.928719 0.0359 -0.369043
vn 0 0 -1
vn 0 0 -1
vn 0.923646 -0.052134 -0.379684
vn 0.928178 -0.049501 -0.368829
vn 0.923781 -0.049266 0.379739
vn 0.928042 -0.052382 0.368774
vn 0 0 1
vn 0 0 1
vn -0.929219 -0.014537 0.369242
vn -0.924787 -0.015934 0.380152
vn -0.929199 -0.01601 -0.369234
vn -0.924807 -0.014468 -0.380161
vn 0 0 -1
vn 0 0 -1
vn 0.929073 0.022949 -0.369184
vn 0.924693 0.021375 -0.380114
vn 0.929103 0.021477 0.369196
vn 0.924663 0.02284 0.380102
vn 0 -0.210476 0.977599
vn 0 -0.210476 0.977599
vn -0.899844 -0.231202 0.3699
vn -0.881608 -0.246219 0.40267
vn -0.897454 -0.24182 -0.368917
vn -0.885743 -0.227578 -0.404559
vn 0 -0.210476 -0.977599
vn 0 -0.210476 -0.977599
vn 0.912716 -0.161805 -0.375191
vn 0.894976 -0.178663 -0.408776
vn 0.910975 -0.172898 0.374475
vn 0.898011 -0.159198 0.410162
vn 0 -0.303094 0.952961
vn 0 -0.303094 0.952961
vn -0.883893 -0.23611 0.403714
vn -0.883893 -0.23611 0.403714
vn -0.883893 -0.23611 -0.403714
vn -0.883893 -0.23611 -0.403714
vn 0 -0.303094 -0.952961
vn 0 -0.303094 -0.952961
vn 0.809624 -0.455811 -0.369792
vn 0.809624 -0.455811 -0.369792
vn 0.809624 -0.455811 0.369792
vn 0.809624 -0.455811 0.369792
vn 0 -1 0
vn 0 -1 0
vn 0 -1 0
vn 0 -1 0
vn 0 -1 0
vn 0 -1 0
vn 0 0 1
vn 0 0 1
vn 0 0 1
vn 0 0 1
vn 0 0 1
vn 0 0 1
vn 0 0 1
vn 0 0 1
vn 0 0 1
vn 0 0 1
vn 0 0 1
vn 0 0 1
vn 0 0 1
vn 0 0 1
vn 0 0 1
vn 0 0 1
vn 0 0 1
vn 0 0 1
vn -0.914633 0.036038 0.402676
vn -0.919423 0.039403 0.391291
vn -0.914524 0.039193 -0.402628
vn -0.919533 0.036231 -0.391338
vn 0 0 -1
vn 0 0 -1
vn 0.91389 -0.05405 -0.402348
vn 0.918932 -0.051173 -0.391083
vn 0.914041 -0.050901 0.402415
vn 0.918778 -0.054339 0.391017
vn 0 0 1
vn 0 0 1
vn -0.920039 -0.014609 0.391554
vn -0.915108 -0.01614 0.402885
vn -0.920016 -0.016226 -0.391544
vn -0.915131 -0.014531 -0.402895
vn 0 0 -1
vn 0 0 -1
vn 0.919876 0.023851 -0.391484
vn 0.915004 0.022115 -0.402839
vn 0.91991 0.022234 0.391499
vn 0.91497 0.023724 0.402824
vn 0 -0.217744 0.976006
vn 0 -0.217744 0.976006
vn -0.886146 -0.250084 0.390134
vn -0.865954 -0.265864 0.423604
vn -0.883364 -0.261568 -0.388909
vn -0.870738 -0.245735 -0.425945
vn 0 -0.217744 -0.976006
vn 0 -0.217744 -0.976006
vn 0.900317 -0.17977 -0.396373
vn 0.880559 -0.197665 -0.430749
vn 0.89823 -0.191829 0.395454
vn 0.884172 -0.176546 0.432517
vn 0 -0.313013 0.949749
vn 0 -0.313013 0.949749
vn -0.86589 -0.266121 0.423573
vn -0.86589 -0.266121 0.423573
vn -0.86589 -0.266121 -0.423573
vn -0.86589 -0.266121 -0.423573
vn 0 -0.313013 -0.949749
vn 0 -0.313013 -0.949749
vn 0.786599 -0.482909 -0.384786
vn 0.786599 -0.482909 -0.384786
vn 0.786599 -0.482909 0.384786
vn 0.786599 -0.482909 0.384786
vn 0 -1 0
vn 0 -1 0
vn 0 -1 0
vn 0 -1 0
vn 0 -1 0
vn 0 -1 0
vn 0 0 1
vn 0 0 1
vn 0 0 1
vn 0 0 1
vn 0 0 1
vn 0 0 1
vn 0 0 1
vn 0 0 1
vn 0 0 1
vn 0 0 1
vn 0 0 1
vn 0 0 1
vn 0 0 1
vn 0 0 1
vn 0 0 1
vn 0 0 1
vn 0 0 1
vn 0 0 1
vn 0 0 1
vn 0 0 1
vn 0 0 1
vn 0 0 1
vn -0.937449 0.035808 0.346277
vn -0.941066 0.038488 0.336026
vn -0.937361 0.038337 -0.346245
vn -0.941155 0.03595 -0.336058
vn 0 0 -1
vn 0 0 -1
vn 0.936865 -0.050246 -0.346062
vn 0.940682 -0.04791 -0.335889
vn 0.936981 -0.047722 0.346105
vn 0.940565 -0.050445 0.335847
vn 0 0 1
vn 0 0 1
vn -0.941663 -0.014643 0.336239
vn -0.937932 -0.015875 0.346456
vn -0.941644 -0.015938 -0.336233
vn -0.93795 -0.014585 -0.346463
vn 0 0 -1
vn 0 0 -1
vn 0.941535 0.022039 -0.336194
vn 0.93785 0.020664 -0.346425
vn 0.941561 0.020745 0.336203
vn 0.937824 0.021953 0.346416
vn 0 -0.203545 0.979066
vn 0 -0.203545 0.979066
vn -0.917508 -0.208129 0.338912
vn -0.902007 -0.222105 0.370206
vn -0.915566 -0.217631 -0.338194
vn -0.905392 -0.205381 -0.371596
vn 0 -0.203545 -0.979066
vn 0 -0.203545 -0.979066
vn 0.928909 -0.139266 -0.343123
vn 0.91397 -0.15475 -0.375116
vn 0.92756 -0.149136 0.342624
vn 0.916342 -0.137382 0.37609
vn 0 -0.293587 0.955932
vn 0 -0.293587 0.955932
vn -0.90697 -0.197081 0.372243
vn -0.90697 -0.197081 0.372243
vn -0.90697 -0.197081 -0.372243
vn -0.90697 -0.197081 -0.372243
vn 0 -0.293587 -0.955932
vn 0 -0.293587 -0.955932
vn 0.838754 -0.421885 -0.344246
vn 0.838754 -0.421885 -0.344246
vn 0.838754 -0.421885 0.344246
vn 0.838754 -0.421885 0.344246
vn 0 -1 0
vn 0 -1 0
vn 0 -1 0
vn 0 -1 0
vn 0 -1 0
vn 0 -1 0
vn 0 0 1
vn 0 0 1
vn 0 0 1
vn 0 0 1
vn 0 0 1
vn 0 0 1
vn 0 0 1
vn 0 0 1
vn 0 0 1
vn 0 0 1
vn 0 0 1
vn 0 0 1
vn 0 0 1
vn 0 0 1
vn 0 0 1
vn 0 0 1
vn 0 0 1
vn 0 0 1
vn -0.916545 0.035335 0.398368
vn -0.921245 0.038581 0.387064
vn -0.916442 0.03838 -0.398323
vn -0.92135 0.035521 -0.387108
vn 0 0 -1
vn 0 0 -1
vn 0.915842 -0.052717 -0.398062
vn 0.920782 -0.049939 -0.386869
vn 0.915985 -0.049679 0.398124
vn 0.920636 -0.052993 0.386808
vn 0 0 1
vn 0 0 1
vn -0.921837 -0.014334 0.387312
vn -0.917003 -0.015812 0.398567
vn -0.921815 -0.015895 -0.387303
vn -0.917024 -0.014259 -0.398576
vn 0 0 -1
vn 0 0 -1
vn 0.921683 0.023251 -0.387247
vn 0.916904 0.021578 -0.398524
vn 0.921715 0.021691 0.387261
vn 0.916872 0.023129 0.39851
vn 0 -0.212621 0.977135
vn 0 -0.212621 0.977135
vn -0.889799 -0.242255 0.386743
vn -0.870084 -0.257668 0.420193
vn -0.887182 -0.253408 -0.385606
vn -0.874589 -0.238114 -0.422369
vn 0 -0.212621 -0.977135
vn 0 -0.212621 -0.977135
vn 0.903257 -0.173201 -0.392592
vn 0.883979 -0.190617 -0.426903
vn 0.901307 -0.184882 0.391745
vn 0.887359 -0.170153 0.428536
vn 0 -0.306027 0.952023
vn 0 -0.306027 0.952023
vn -0.870495 -0.25595 0.420391
vn -0.870495 -0.25595 0.420391
vn -0.870495 -0.25595 -0.420391
vn -0.870495 -0.25595 -0.420391
vn 0 -0.306027 -0.952023
vn 0 -0.306027 -0.952023
vn 0.794318 -0.471071 -0.383603
vn 0.794318 -0.471071 -0.383603
vn 0.794318 -0.471071 0.383603
vn 0.794318 -0.471071 0.383603
vn 0 -1 0
vn 0 -1 0
vn 0 -1 0
vn 0 -1 0
vn 0 -1 0
vn 0 -1 0
vn 0 0 1
vn 0 0 1
vn 0 0 1
vn 0 0 1
vn 0 0 1
vn 0 0 1
vn 0 0 1
vn 0 0 1
vn 0 0 1
vn 0 0 1
vn 0 0 1
vn 0 0 1
vn 0 0 1
vn 0 0 1
vn 0 0 1
vn 0 0 1
vn 0 0 1
vn 0 0 1
vn -0.921842 0.036509 0.385844
vn -0.926266 0.039705 0.374772
vn -0.921736 0.039511 -0.3858
vn -0.926373 0.036688 -0.374816
vn 0 0 -1
vn 0 0 -1
vn 0.921128 -0.053646 -0.385545
vn 0.925796 -0.050898 -0.374582
vn 0.921273 -0.05065 0.385605
vn 0.925649 -0.053909 0.374523
vn 0 0 1
vn 0 0 1
vn -0.926895 -0.014841 0.375027
vn -0.922334 -0.016299 0.38605
vn -0.926873 -0.016379 -0.375018
vn -0.922356 -0.014768 -0.386059
vn 0 0 -1
vn 0 0 -1
vn 0.926738 0.02363 -0.374963
vn 0.922234 0.021984 -0.386008
vn 0.926771 0.022092 0.374977
vn 0.922201 0.023514 0.385994
vn 0 -0.216269 0.976334
vn 0 -0.216269 0.976334
vn -0.895417 -0.240345 0.374783
vn -0.87657 -0.255809 0.407661
vn -0.89284 -0.25136 -0.373705
vn -0.881021 -0.236481 -0.409731
vn 0 -0.216269 -0.976334
vn 0 -0.216269 -0.976334
vn 0.909106 -0.169514 -0.380513
vn 0.890753 -0.186947 -0.414257
vn 0.907211 -0.181055 0.37972
vn 0.894051 -0.166707 0.415791
vn 0 -0.311004 0.950409
vn 0 -0.311004 0.950409
vn -0.878359 -0.248233 0.408493
vn -0.878359 -0.248233 0.408493
vn -0.878359 -0.248233 -0.408493
vn -0.878359 -0.248233 -0.408493
vn 0 -0.311004 -0.950409
vn 0 -0.311004 -0.950409
vn 0.800418 -0.469855 -0.372246
vn 0.800418 -0.469855 -0.372246
vn 0.800418 -0.469855 0.372246
vn 0.800418 -0.469855 0.372246
vn 0 -1 0
vn 0 -1 0
vn 0 -1 0
vn 0 -1 0
vn 0 -1 0
vn 0 -1 0
vn 0 0 1
vn 0 0 1
vn 0 0 1
vn 0 0 1
vn 0 0 1
vn 0 0 1
vn 0 0 1
vn 0 0 1
vn 0 0 1
vn 0 0 1
vn 0 0 1
vn 0 0 1
vn 0 0 1
vn 0 0 1
vn 0 0 1
vn 0 0 1
vn 0 0 1
vn 0 0 1
vn 0 0 1
vn 0 0 1
vn 0 0 1
vn 0 0 1
vn -0.93582 0.035552 0.350681
vn -0.939526 0.038261 0.340334
vn -0.935732 0.038106 -0.350648
vn -0.939615 0.035696 -0.340366
vn 0 0 -1
vn 0 0 -1
vn 0.935234 -0.050137 -0.350461
vn 0.939141 -0.047779 -0.340194
vn 0.935351 -0.047586 0.350505
vn 0.939022 -0.05034 0.340152
vn 0 0 1
vn 0 0 1
vn -0.940115 -0.014529 0.340547
vn -0.936295 -0.015773 0.350859
vn -0.940096 -0.015837 -0.340541
vn -0.936314 -0.01447 -0.350866
vn 0 0 -1
vn 0 0 -1
vn 0.939987 0.022001 -0.340501
vn 0.936213 0.02061 -0.350828
vn 0.940013 0.020694 0.34051
vn 0.936187 0.021912 0.350818
vn 0 -0.203053 0.979168
vn 0 -0.203053 0.979168
vn -0.915599 -0.209664 0.343103
vn -0.89978 -0.223698 0.37464
vn -0.913627 -0.219252 -0.342365
vn -0.903213 -0.206827 -0.376069
vn 0 -0.203053 -0.979168
vn 0 -0.203053 -0.979168
vn 0.927036 -0.141157 -0.347389
vn 0.911767 -0.156724 -0.37963
vn 0.925658 -0.151119 0.346873
vn 0.914187 -0.1392 0.380638
vn 0 -0.292911 0.95614
vn 0 -0.292911 0.95614
vn -0.904385 -0.200729 0.376557
vn -0.904385 -0.200729 0.376557
vn -0.904385 -0.200729 -0.376557
vn -0.904385 -0.200729 -0.376557
vn 0 -0.292911 -0.95614
vn 0 -0.292911 -0.95614
vn 0.836144 -0.423862 -0.348144
vn 0.836144 -0.423862 -0.348144
vn 0.836144 -0.423862 0.348144
vn 0.836144 -0.423862 0.348144
vn 0 -1 0
vn 0 -1 0
vn 0 -1 0
vn 0 -1 0
vn 0 -1 0
vn 0 -1 0
vn 0 0 1
vn 0 0 1
vn 0 0 1
vn 0 0 1
vn 0 0 1
vn 0 0 1
vn 0 0 1
vn 0 0 1
vn 0 0 1
vn 0 0 1
vn 0 0 1
vn 0 0 1
vn 0 0 1
vn 0 0 1
vn 0 0 1
vn 0 0 1
vn 0 0 1
vn 0 0 1
vn -0.911543 0.035512 0.409668
vn -0.916489 0.038917 0.398161
vn -0.911435 0.038702 -0.40962
vn -0.916599 0.035708 -0.398209
vn 0 0 -1
vn 0 0 -1
vn 0.910801 -0.053726 -0.409335
vn 0.915999 -0.050821 -0.397948
vn 0.910953 -0.050542 0.409403
vn 0.915845 -0.054023 0.397881
vn 0 0 1
vn 0 0 1
vn -0.917089 -0.014378 0.398422
vn -0.912003 -0.015926 0.409875
vn -0.917067 -0.016014 -0.398412
vn -0.912025 -0.014298 -0.409885
vn 0 0 -1
vn 0 0 -1
vn 0.916926 0.023725 -0.398351
vn 0.911898 0.021968 -0.409828
vn 0.91696 0.02209 0.398366
vn 0.911865 0.023594 0.409813
vn 0 -0.216482 0.976287
vn 0 -0.216482 0.976287
vn -0.882684 -0.251992 0.396698
vn -0.861985 -0.267775 0.43044
vn -0.879862 -0.263586 -0.39543
vn -0.86683 -0.247466 -0.432859
vn 0 -0.216482 -0.976287
vn 0 -0.216482 -0.976287
vn 0.896809 -0.182451 -0.403046
vn 0.876512 -0.200379 -0.437694
vn 0.894677 -0.194625 0.402088
vn 0.880196 -0.179071 0.439533
vn 0 -0.311295 0.950313
vn 0 -0.311295 0.950313
vn -0.861115 -0.271251 0.430005
vn -0.861115 -0.271251 0.430005
vn -0.861115 -0.271251 -0.430005
vn -0.861115 -0.271251 -0.430005
vn 0 -0.311295 -0.950313
vn 0 -0.311295 -0.950313
vn 0.782443 -0.484893 -0.39072
vn 0.782443 -0.484893 -0.39072
vn 0.782443 -0.484893 0.39072
vn 0.782443 -0.484893 0.39072
vn 0 -1 0
vn 0 -1 0
vn 0 -1 0
vn 0 -1 0
vn 0 -1 0
vn 0 -1 0
vn 0 0 1
vn 0 0 1
vn 0 0 1
vn 0 0 1
vn 0 0 1
vn 0 0 1
vn 0 0 1
vn 0 0 1
vn 0 0 1
vn 0 0 1
vn 0 0 1
vn 0 0 1
vn 0 0 1
vn 0 0 1
vn 0 0 1
vn 0 0 1
vn 0 0 1
vn 0 0 1
vn -0.935655 0.03724 0.350944
vn -0.939358 0.040081 0.340589
vn -0.935559 0.039919 -0.350908
vn -0.939456 0.037392 -0.340624
vn 0 0 -1
vn 0 0 -1
vn 0.935012 -0.052532 -0.350703
vn 0.938934 -0.050061 -0.340435
vn 0.93514 -0.049858 0.350751
vn 0.938805 -0.052745 0.340388
vn 0 0 1
vn 0 0 1
vn -0.940004 -0.015219 0.340823
vn -0.936177 -0.016523 0.35114
vn -0.939984 -0.016591 -0.340816
vn -0.936197 -0.015157 -0.351148
vn 0 0 -1
vn 0 0 -1
vn 0.939863 0.023055 -0.340772
vn 0.936087 0.021596 -0.351106
vn 0.939892 0.021684 0.340782
vn 0.936058 0.022962 0.351095
vn 0 -0.212347 0.977194
vn 0 -0.212347 0.977194
vn -0.913499 -0.219368 0.342634
vn -0.897426 -0.233979 0.374006
vn -0.911346 -0.229355 -0.341826
vn -0.901175 -0.216408 -0.375568
vn 0 -0.212347 -0.977194
vn 0 -0.212347 -0.977194
vn 0.926005 -0.147923 -0.347325
vn 0.910521 -0.16419 -0.379463
vn 0.924494 -0.158337 0.346758
vn 0.913175 -0.145873 0.380569
vn 0 -0.305653 0.952143
vn 0 -0.305653 0.952143
vn -0.902425 -0.210204 0.376089
vn -0.902425 -0.210204 0.376089
vn -0.902425 -0.210204 -0.376089
vn -0.902425 -0.210204 -0.376089
vn 0 -0.305653 -0.952143
vn 0 -0.305653 -0.952143
vn 0.828676 -0.440484 -0.345354
vn 0.828676 -0.440484 -0.345354
vn 0.828676 -0.440484 0.345354
vn 0.828676 -0.440484 0.345354
vn 0 -1 0
vn 0 -1 0
vn 0 -1 0
vn 0 -1 0
vn 0 -1 0
vn 0 -1 0
vn 0 0 1
vn 0 0 1
vn 0 0 1
vn 0 0 1
vn 0 0 1
vn 0 0 1
vn 0 0 1
vn 0 0 1
vn 0 0 1
vn 0 0 1
vn 0 0 1
vn 0 0 1
vn 0 0 1
vn 0 0 1
vn 0 0 1
vn 0 0 1
vn 0 0 1
vn 0 0 1
vn 0 0 1
vn 0 0 1
vn 0 0 1
vn 0 0 1
vn -0.922134 0.034307 0.385348
vn -0.926561 0.037304 0.374291
vn -0.922041 0.037122 -0.385309
vn -0.926655 0.034475 -0.374329
vn 0 0 -1
vn 0 0 -1
vn 0.921505 -0.050382 -0.385085
vn 0.926146 -0.047805 -0.374123
vn 0.921632 -0.047572 0.385138
vn 0.926017 -0.050629 0.374071
vn 0 0 1
vn 0 0 1
vn -0.927116 -0.013946 0.374515
vn -0.922569 -0.015313 0.385529
vn -0.927096 -0.015388 -0.374507
vn -0.922588 -0.013878 -0.385537
vn 0 0 -1
vn 0 0 -1
vn 0.926978 0.022188 -0.37446
vn 0.92248 0.020645 -0.385492
vn 0.927006 0.020746 0.374471
vn 0.922452 0.02208 0.385481
vn 0 -0.203645 0.979045
vn 0 -0.203645 0.979045
vn -0.898757 -0.226224 0.375579
vn -0.880287 -0.240897 0.408734
vn -0.896464 -0.236666 -0.374621
vn -0.884247 -0.222572 -0.410572
vn 0 -0.203645 -0.979045
vn 0 -0.203645 -0.979045
vn 0.910912 -0.159182 -0.380658
vn 0.892899 -0.175634 -0.41459
vn 0.909236 -0.170066 0.379958
vn 0.895815 -0.156544 0.415944
vn 0 -0.293725 0.95589
vn 0 -0.293725 0.95589
vn -0.881932 -0.233468 0.409498
vn -0.881932 -0.233468 0.409498
vn -0.881932 -0.233468 -0.409498
vn -0.881932 -0.233468 -0.409498
vn 0 -0.293725 -0.95589
vn 0 -0.293725 -0.95589
vn 0.811451 -0.446756 -0.376772
vn 0.811451 -0.446756 -0.376772
vn 0.811451 -0.446756 0.376772
vn 0.811451 -0.446756 0.376772
vn 0 -1 0
vn 0 -1 0
vn 0 -1 0
vn 0 -1 0
vn 0 -1 0
vn 0 -1 0
vn 0 0 1
vn 0 0 1
vn 0 0 1
vn 0 0 1
vn 0 0 1
vn 0 0 1
vn 0 0 1
vn 0 0 1
vn 0 0 1
vn 0 0 1
vn 0 0 1
vn 0 0 1
vn 0 0 1
vn 0 0 1
vn 0 0 1
vn 0 0 1
vn 0 0 1
vn 0 0 1
vn -0.916332 0.036236 0.398776
vn -0.921036 0.03957 0.387462
vn -0.916224 0.039363 -0.398728
vn -0.921146 0.036427 -0.387508
vn 0 0 -1
vn 0 0 -1
vn 0.915592 -0.054087 -0.398454
vn 0.920547 -0.051234 -0.387256
vn 0.915743 -0.050966 0.398519
vn 0.920395 -0.054371 0.387192
vn 0 0 1
vn 0 0 1
vn -0.921658 -0.014699 0.387724
vn -0.916814 -0.016217 0.398985
vn -0.921636 -0.016302 -0.387714
vn -0.916837 -0.014622 -0.398995
vn 0 0 -1
vn 0 0 -1
vn 0.921496 0.023857 -0.387655
vn 0.91671 0.022139 -0.39894
vn 0.92153 0.022255 0.38767
vn 0.916676 0.023733 0.398925
vn 0 -0.2179 0.975971
vn 0 -0.2179 0.975971
vn -0.888199 -0.248384 0.386532
vn -0.868305 -0.264125 0.419861
vn -0.885454 -0.259783 -0.385338
vn -0.873033 -0.244143 -0.422147
vn 0 -0.2179 -0.975971
vn 0 -0.2179 -0.975971
vn 0.902325 -0.1778 -0.39268
vn 0.88288 -0.19563 -0.426909
vn 0.900273 -0.189765 0.391787
vn 0.886436 -0.174669 0.428628
vn 0 -0.313225 0.949679
vn 0 -0.313225 0.949679
vn -0.868688 -0.262569 0.420046
vn -0.868688 -0.262569 0.420046
vn -0.868688 -0.262569 -0.420046
vn -0.868688 -0.262569 -0.420046
vn 0 -0.313225 -0.949679
vn 0 -0.313225 -0.949679
vn 0.789392 -0.480795 -0.381703
vn 0.789392 -0.480795 -0.381703
vn 0.789392 -0.480795 0.381703
vn 0.789392 -0.480795 0.381703
vn 0 -1 0
vn 0 -1 0
vn 0 -1 0
vn 0 -1 0
vn 0 -1 0
vn 0 -1 0
vn 0 0 1
vn 0 0 1
vn 0 0 1
vn 0 0 1
vn 0 0 1
vn 0 0 1
vn 0 0 1
vn 0 0 1
vn 0 0 1
vn 0 0 1
vn 0 0 1
vn 0 0 1
vn 0 0 1
vn 0 0 1
vn 0 0 1
vn 0 0 1
vn 0 0 1
vn 0 0 1
vn -0.937424 0.037033 0.346215
vn -0.941034 0.039804 0.335963
vn -0.93733 0.039647 -0.34618
vn -0.941129 0.037179 -0.335997
vn 0 0 -1
vn 0 0 -1
vn 0.9368 -0.05196 -0.345984
vn 0.940624 -0.049544 -0.335816
vn 0.936925 -0.04935 0.34603
vn 0.940498 -0.052165 0.335772
vn 0 0 1
vn 0 0 1
vn -0.941672 -0.015145 0.336191
vn -0.937941 -0.016418 0.346406
vn -0.941652 -0.016483 -0.336184
vn -0.937961 -0.015085 -0.346413
vn 0 0 -1
vn 0 0 -1
vn 0.941535 0.022792 -0.336142
vn 0.937853 0.02137 -0.346373
vn 0.941563 0.021454 0.336152
vn 0.937826 0.022703 0.346363
vn 0 -0.210202 0.977658
vn 0 -0.210202 0.977658
vn -0.916151 -0.214899 0.338358
vn -0.900489 -0.229282 0.369526
vn -0.914084 -0.224679 -0.337595
vn -0.904092 -0.21207 -0.371005
vn 0 -0.210202 -0.977658
vn 0 -0.210202 -0.977658
vn 0.928304 -0.143905 -0.342846
vn 0.913234 -0.159882 -0.374756
vn 0.926864 -0.15409 0.342315
vn 0.915765 -0.141962 0.375795
vn 0 -0.302719 0.95308
vn 0 -0.302719 0.95308
vn -0.905776 -0.203499 0.371696
vn -0.905776 -0.203499 0.371696
vn -0.905776 -0.203499 -0.371696
vn -0.905776 -0.203499 -0.371696
vn 0 -0.302719 -0.95308
vn 0 -0.302719 -0.95308
vn 0.833643 -0.433603 -0.342095
vn 0.833643 -0.433603 -0.342095
vn 0.833643 -0.433603 0.342095
vn 0.833643 -0.433603 0.342095
vn 0 -1 0
vn 0 -1 0
vn 0 -1 0
vn 0 -1 0
vn 0 -1 0
vn 0 -1 0
vn 0 0 1
vn 0 0 1
vn 0 0 1
vn 0 0 1
vn 0 0 1
vn 0 0 1
vn 0 0 1
vn 0 0 1
vn 0 0 1
vn 0 0 1
vn 0 0 1
vn 0 0 1
vn 0 0 1
vn 0 0 1
vn 0 0 1
vn 0 0 1
vn 0 0 1
vn 0 0 1
vn 0 0 1
vn 0 0 1
vn 0 0 1
vn 0 0 1
vn -0.914863 0.033798 0.402347
vn -0.91966 0.03695 0.390974
vn -0.914768 0.036754 -0.402305
vn -0.919757 0.033979 -0.391016
vn 0 0 -1
vn 0 0 -1
vn 0.91421 -0.050673 -0.40206
vn 0.919228 -0.047978 -0.390791
vn 0.914343 -0.047723 0.402118
vn 0.919093 -0.050944 0.390734
vn 0 0 1
vn 0 0 1
vn -0.920202 -0.013701 0.391205
vn -0.915281 -0.015135 0.402531
vn -0.920181 -0.015216 -0.391196
vn -0.915301 -0.013628 -0.40254
vn 0 0 -1
vn 0 0 -1
vn 0.920058 0.022357 -0.391144
vn 0.915189 0.020731 -0.40249
vn 0.920088 0.020842 0.391157
vn 0.91516 0.022238 0.402477
vn 0 -0.204696 0.978826
vn 0 -0.204696 0.978826
vn -0.889718 -0.235151 0.391288
vn -0.86991 -0.25012 0.425085
vn -0.887247 -0.246038 -0.390202
vn -0.874159 -0.231039 -0.427162
vn 0 -0.204696 -0.978826
vn 0 -0.204696 -0.978826
vn 0.902273 -0.16866 -0.39681
vn 0.882868 -0.185537 -0.431417
vn 0.90043 -0.180026 0.396
vn 0.886058 -0.165629 0.432976
vn 0 -0.295169 0.955445
vn 0 -0.295169 0.955445
vn -0.86989 -0.250206 0.425076
vn -0.86989 -0.250206 0.425076
vn -0.86989 -0.250206 -0.425076
vn -0.86989 -0.250206 -0.425076
vn 0 -0.295169 -0.955445
vn 0 -0.295169 -0.955445
vn 0.798235 -0.458992 -0.390061
vn 0.798235 -0.458992 -0.390061
vn 0.798235 -0.458992 0.390061
vn 0.798235 -0.458992 0.390061
vn 0 -1 0
vn 0 -1 0
vn 0 -1 0
vn 0 -1 0
vn 0 -1 0
vn 0 -1 0
vn 0 0 1
vn 0 0 1
vn 0 0 1
vn 0 0 1
vn 0 0 1
vn 0 0 1
vn 0 0 1
vn 0 0 1
vn 0 0 1
vn 0 0 1
vn 0 0 1
vn 0 0 1
vn 0 0 1
vn 0 0 1
vn 0 0 1
vn 0 0 1
vn 0 0 1
vn 0 0 1
vn -0.924042 0.037189 0.380478
vn -0.928349 0.040378 0.36951
vn -0.923935 0.040186 -0.380434
vn -0.928458 0.037367 -0.369553
vn 0 0 -1
vn 0 0 -1
vn 0.923318 -0.054295 -0.38018
vn 0.927872 -0.05155 -0.36932
vn 0.923464 -0.051305 0.38024
vn 0.927723 -0.054554 0.36926
vn 0 0 1
vn 0 0 1
vn -0.929001 -0.015131 0.369769
vn -0.924554 -0.016587 0.380689
vn -0.928978 -0.016666 -0.36976
vn -0.924577 -0.015059 -0.380698
vn 0 0 -1
vn 0 0 -1
vn 0.928841 0.023903 -0.369706
vn 0.924452 0.022262 -0.380647
vn 0.928874 0.022369 0.369719
vn 0.92442 0.02379 0.380633
vn 0 -0.21881 0.975767
vn 0 -0.21881 0.975767
vn -0.897535 -0.240527 0.369564
vn -0.879032 -0.256065 0.402161
vn -0.894955 -0.251521 -0.368501
vn -0.883495 -0.236765 -0.404203
vn 0 -0.21881 -0.975767
vn 0 -0.21881 -0.975767
vn 0.911439 -0.168635 -0.375288
vn 0.893458 -0.18614 -0.408761
vn 0.909551 -0.180162 0.374511
vn 0.896746 -0.165917 0.410265
vn 0 -0.314465 0.949269
vn 0 -0.314465 0.949269
vn -0.881436 -0.24587 0.403261
vn -0.881436 -0.24587 0.403261
vn -0.881436 -0.24587 -0.403261
vn -0.881436 -0.24587 -0.403261
vn 0 -0.314465 -0.949269
vn 0 -0.314465 -0.949269
vn 0.802186 -0.470964 -0.367003
vn 0.802186 -0.470964 -0.367003
vn 0.802186 -0.470964 0.367003
vn 0.802186 -0.470964 0.367003
vn 0 -1 0
vn 0 -1 0
vn 0 -1 0
vn 0 -1 0
vn 0 -1 0
vn 0 -1 0
vn 0 0 1
vn 0 0 1
vn 0 0 1
vn 0 0 1
vn 0 0 1
vn 0 0 1
vn 0 0 1
vn 0 0 1
vn 0 0 1
vn 0 0 1
vn 0 0 1
vn 0 0 1
vn 0 0 1
vn 0 0 1
vn 0 0 1
vn 0 0 1
vn 0 0 1
vn 0 0 1
vn 0 0 1
vn 0 0 1
vn 0.015998 -0.999872 0
vn 0.015998 -0.999872 0
vn 1 0 0
vn 1 0 0
vn 0 1 0
vn 0 1 0
vn -1 0 0
vn -1 0 0
vn 0 0 1
vn 0 0 1
vn 0 0 1
vn 0 0 1
vn 0.015998 -0.999872 0
vn 0.015998 -0.999872 0
vn 1 0 0
vn 1 0 0
vn 0 1 0
vn 0 1 0
vn -1 0 0
vn -1 0 0
vn 0 0 1
vn 0 0 1
vn 0 0 1
vn 0 0 1
vn 0.015998 -0.999872 0
vn 0.015998 -0.999872 0
vn 1 0 0
vn 1 0 0
vn 0 1 0
vn 0 1 0
vn -1 0 0
vn -1 0 0
vn 0 0 1
vn 0 0 1
vn 0 0 1
vn 0 0 1
vn 0.015998 -0.999872 0
vn 0.015998 -0.999872 0
vn 1 0 0
vn 1 0 0
vn 0 1 0
vn 0 1 0
vn -1 0 0
vn -1 0 0
vn 0 0 1
vn 0 0 1
vn 0 0 1
vn 0 0 1
vn 0.015998 -0.999872 0
vn 0.015998 -0.999872 0
vn 1 0 0
vn 1 0 0
vn 0 1 0
vn 0 1 0
vn -1 0 0
vn -1 0 0
vn 0 0 1
vn 0 0 1
vn 0 0 1
vn 0 0 1
vn 0.015998 -0.999872 0
vn 0.015998 -0.999872 0
vn 1 0 0
vn 1 0 0
vn 0 1 0
vn 0 1 0
vn -1 0 0
vn -1 0 0
vn 0 0 1
vn 0 0 1
vn 0 0 1
vn 0 0 1
vn 0.015998 -0.999872 0
vn 0.015998 -0.999872 0
vn 1 0 0
vn 1 0 0
vn 0 1 0
vn 0 1 0
vn -1 0 0
vn -1 0 0
vn 0 0 1
vn 0 0 1
vn 0 0 1
vn 0 0 1
vn 0.015998 -0.999872 0
vn 0.015998 -0.999872 0
vn 1 0 0
vn 1 0 0
vn 0 1 0
vn 0 1 0
vn -1 0 0
vn -1 0 0
vn 0 0 1
vn 0 0 1
vn 0 0 1
vn 0 0 1
vn 0.015998 -0.999872 0
vn 0.015998 -0.999872 0
vn 1 0 0
vn 1 0 0
vn 0 1 0
vn 0 1 0
vn -1 0 0
vn -1 0 0
vn 0 0 1
vn 0 0 1
vn 0 0 1
vn 0 0 1
vn 0.015998 -0.999872 0
vn 0.015998 -0.999872 0
vn 1 0 0
vn 1 0 0
vn 0 1 0
vn 0 1 0
vn -1 0 0
vn -1 0 0
vn 0 0 1
vn 0 0 1
vn 0 0 1
vn 0 0 1
vn 0.015998 -0.999872 0
vn 0.015998 -0.999872 0
vn 1 0 0
vn 1 0 0
vn 0 1 0
vn 0 1 0
vn -1 0 0
vn -1 0 0
vn 0 0 1
vn 0 0 1
vn 0 0 1
vn 0 0 1
vn 0.015998 -0.999872 0
vn 0.015998 -0.999872 0
vn 1 0 0
vn 1 0 0
vn 0 1 0
vn 0 1 0
vn -1 0 0
vn -1 0 0
vn 0 0 1
vn 0 0 1
vn 0 0 1
vn 0 0 1
vn 0.015998 -0.999872 0
vn 0.015998 -0.999872 0
vn 1 0 0
vn 1 0 0
vn 0 1 0
vn 0 1 0
vn -1 0 0
vn -1 0 0
vn 0 0 1
vn 0 0 1
vn 0 0 1
vn 0 0 1
vn 0.015998 -0.999872 0
vn 0.015998 -0.999872 0
vn 1 0 0
vn 1 0 0
vn 0 1 0
vn 0 1 0
vn -1 0 0
vn -1 0 0
vn 0 0 1
vn 0 0 1
vn 0 0 1
vn 0 0 1
vn 0.015998 -0.999872 0
vn 0.015998 -0.999872 0
vn 1 0 0
vn 1 0 0
vn 0 1 0
vn 0 1 0
vn -1 0 0
vn -1 0 0
vn 0 0 1
vn 0 0 1
vn 0 0 1
vn 0 0 1
vn 0.015998 -0.999872 0
vn 0.015998 -0.999872 0
vn 1 0 0
vn 1 0 0
vn 0 1 0
vn 0 1 0
vn -1 0 0
vn -1 0 0
vn 0 0 1
vn 0 0 1
vn 0 0 1
vn 0 0 1
vn 0.015998 -0.999872 0
vn 0.015998 -0.999872 0
vn 1 0 0
vn 1 0 0
vn 0 1 0
vn 0 1 0
vn -1 0 0
vn -1 0 0
vn 0 0 1
vn 0 0 1
vn 0 0 1
vn 0 0 1
vn 0.015998 -0.999872 0
vn 0.015998 -0.999872 0
vn 1 0 0
vn 1 0 0
vn 0 1 0
vn 0 1 0
vn -1 0 0
vn -1 0 0
vn 0 0 1
vn 0 0 1
vn 0 0 1
vn 0 0 1
vn 0.015998 -0.999872 0
vn 0.015998 -0.999872 0
vn 1 0 0
vn 1 0 0
vn 0 1 0
vn 0 1 0
vn -1 0 0
vn -1 0 0
vn 0 0 1
vn 0 0 1
vn 0 0 1
vn 0 0 1
vn 0.015998 -0.999872 0
vn 0.015998 -0.999872 0
vn 1 0 0
vn 1 0 0
vn 0 1 0
vn 0 1 0
vn -1 0 0
vn -1 0 0
vn 0 0 1
vn 0 0 1
vn 0 0 1
vn 0 0 1
vn 0.015998 -0.999872 0
vn 0.015998 -0.999872 0
vn 1 0 0
vn 1 0 0
vn 0 1 0
vn 0 1 0
vn -1 0 0
vn -1 0 0
vn 0 0 1
vn 0 0 1
vn 0 0 1
vn 0 0 1
vn 0.015998 -0.999872 0
vn 0.015998 -0.999872 0
vn 1 0 0
vn 1 0 0
vn 0 1 0
vn 0 1 0
vn -1 0 0
vn -1 0 0
vn 0 0 1
vn 0 0 1
vn 0 0 1
vn 0 0 1
vn 0.015998 -0.999872 0
vn 0.015998 -0.999872 0
vn 1 0 0
vn 1 0 0
vn 0 1 0
vn 0 1 0
vn -1 0 0
vn -1 0 0
vn 0 0 1
vn 0 0 1
vn 0 0 1
vn 0 0 1
vn 0.015998 -0.999872 0
vn 0.015998 -0.999872 0
vn 1 0 0
vn 1 0 0
vn 0 1 0
vn 0 1 0
vn -1 0 0
vn -1 0 0
vn 0 0 1
vn 0 0 1
vn 0 0 1
vn 0 0 1
vn 0.015998 -0.999872 0
vn 0.015998 -0.999872 0
vn 1 0 0
vn 1 0 0
vn 0 1 0
vn 0 1 0
vn -1 0 0
vn -1 0 0
vn 0 0 1
vn 0 0 1
vn 0 0 1
vn 0 0 1
vn 0.015998 -0.999872 0
vn 0.015998 -0.999872 0
vn 1 0 0
vn 1 0 0
vn 0 1 0
vn 0 1 0
vn -1 0 0
vn -1 0 0
vn 0 0 1
vn 0 0 1
vn 0 0 1
vn 0 0 1
vn 0.015998 -0.999872 0
vn 0.015998 -0.999872 0
vn 1 0 0
vn 1 0 0
vn 0 1 0
vn 0 1 0
vn -1 0 0
vn -1 0 0
vn 0 0 1
vn 0 0 1
vn 0 0 1
vn 0 0 1
vn 0.015998 -0.999872 0
vn 0.015998 -0.999872 0
vn 1 0 0
vn 1 0 0
vn 0 1 0
vn 0 1 0
vn -1 0 0
vn -1 0 0
vn 0 0 1
vn 0 0 1
vn 0 0 1
vn 0 0 1
vn 0.015998 -0.999872 0
vn 0.015998 -0.999872 0
vn 1 0 0
vn 1 0 0
vn 0 1 0
vn 0 1 0
vn -1 0 0
vn -1 0 0
vn 0 0 1
vn 0 0 1
vn 0 0 1
vn 0 0 1
vn 0.015998 -0.999872 0
vn 0.015998 -0.999872 0
vn 1 0 0
vn 1 0 0
vn 0 1 0
vn 0 1 0
vn -1 0 0
vn -1 0 0
vn 0 0 1
vn 0 0 1
vn 0 0 1
vn 0 0 1
vn 0.015998 -0.999872 0
vn 0.015998 -0.999872 0
vn 1 0 0
vn 1 0 0
vn 0 1 0
vn 0 1 0
vn -1 0 0
vn -1 0 0
vn 0 0 1
vn 0 0 1
vn 0 0 1
vn 0 0 1
vn 0.015998 -0.999872 0
vn 0.015998 -0.999872 0
vn 1 0 0
vn 1 0 0
vn 0 1 0
vn 0 1 0
vn -1 0 0
vn -1 0 0
vn 0 0 1
vn 0 0 1
vn 0 0 1
vn 0 0 1
vn 0.015998 -0.999872 0
vn 0.015998 -0.999872 0
vn 1 0 0
vn 1 0 0
vn 0 1 0
vn 0 1 0
vn -1 0 0
vn -1 0 0
vn 0 0 1
vn 0 0 1
vn 0 0 1
vn 0 0 1
vn 0.015998 -0.999872 0
vn 0.015998 -0.999872 0
vn 1 0 0
vn 1 0 0
vn 0 1 0
vn 0 1 0
vn -1 0 0
vn -1 0 0
vn 0 0 1
vn 0 0 1
vn 0 0 1
vn 0 0 1
vn 0.015998 -0.999872 0
vn 0.015998 -0.999872 0
vn 1 0 0
vn 1 0 0
vn 0 1 0
vn 0 1 0
vn -1 0 0
vn -1 0 0
vn 0 0 1
vn 0 0 1
vn 0 0 1
vn 0 0 1
vn 0.015998 -0.999872 0
vn 0.015998 -0.999872 0
vn 1 0 0
vn 1 0 0
vn 0 1 0
vn 0 1 0
vn -1 0 0
vn -1 0 0
s off
g logs-and-rails
usemtl pigment_ff000000
f 1//1 2//1 3//1
f 1//2 3//2 4//2
f 2//3 5//3 6//3
f 2//4 6//4 3//4
f 5//5 7//5 8//5
f 5//6 8//6 6//6
f 7//7 9//7 10//7
f 7//8 10//8 8//8
f 9//9 11//9 12//9
f 9//10 12//10 10//10
f 11//11 1//11 4//11
f 11//12 4//12 12//12
f 4//13 3//13 13//13
f 4//14 13//14 14//14
f 3//15 6//15 15//15
f 3//16 15//16 13//16
f 6//17 8//17 16//17
f 6//18 16//18 15//18
f 8//19 10//19 17//19
f 8//20 17//20 16//20
f 10//21 12//21 18//21
f 10//22 18//22 17//22
f 12//23 4//23 14//23
f 12//24 14//24 18//24
f 14//25 13//25 19//25
f 14//26 19//26 20//26
f 13//27 15//27 21//27
f 13//28 21//28 19//28
f 15//29 16//29 22//29
f 15//30 22//30 21//30
f 16//31 17//31 23//31
f 16//32 23//32 22//32
f 17//33 18//33 24//33
f 17//34 24//34 23//34
f 18//35 14//35 20//35
f 18//36 20//36 24//36
f 20//37 19//37 25//37
f 20//38 25//38 26//38
f 19//39 21//39 27//39
f 19//40 27//40 25//40
f 21//41 22//41 28//41
f 21//42 28//42 27//42
f 22//43 23//43 29//43
f 22//44 29//44 28//44
f 23//45 24//45 30//45
f 23//46 30//46 29//46
f 24//47 20//47 26//47
f 24//48 26//48 30//48
f 31//49 26//49 25//49
f 31//50 25//50 27//50
f 31//51 27//51 28//51
f 31//52 28//52 29//52
f 31//53 29//53 30//53
f 31//54 30//54 26//54
usemtl pigment_ffffffff
f 32//55 33//55 34//55
f 34//56 33//56 35//56
f 34//57 35//57 36//57
f 36//58 35//58 37//58
f 36//59 37//59 38//59
f 38//60 37//60 39//60
f 38//61 39//61 40//61
f 40//62 39//62 41//62
f 42//63 43//63 44//63
f 44//64 43//64 45//64
f 44//65 45//65 46//65
f 46//66 45//66 47//66
f 46//67 47//67 48//67
f 48//68 47//68 49//68
f 48//69 49//69 50//69
f 50//70 49//70 51//70
usemtl pigment_ff000000
f 52//71 53//71 54//71
f 52//72 54//72 55//72
f 53//73 56//73 57//73
f 53//74 57//74 54//74
f 56//75 58//75 59//75
f 56//76 59//76 57//76
f 58//77 60//77 61//77
f 58//78 61//78 59//78
f 60//79 62//79 63//79
f 60//80 63//80 61//80
f 62//81 52//81 55//81
f 62//82 55//82 63//82
f 55//83 54//83 64//83
f 55//84 64//84 65//84
f 54//85 57//85 66//85
f 54//86 66//86 64//86
f 57//87 59//87 67//87
f 57//88 67//88 66//88
f 59//89 61//89 68//89
f 59//90 68//90 67//90
f 61//91 63//91 69//91
f 61//92 69//92 68//92
f 63//93 55//93 65//93
f 63//94 65//94 69//94
f 65//95 64//95 70//95
f 65//96 70//96 71//96
f 64//97 66//97 72//97
f 64//98 72//98 70//98
f 66//99 67//99 73//99
f 66//100 73//100 72//100
f 67//101 68//101 74//101
f 67//102 74//102 73//102
f 68//103 69//103 75//103
f 68//104 75//104 74//104
f 69//105 65//105 71//105
f 69//106 71//106 75//106
f 71//107 70//107 76//107
f 71//108 76//108 77//108
f 70//109 72//109 78//109
f 70//110 78//110 76//110
f 72//111 73//111 79//111
f 72//112 79//112 78//112
f 73//113 74//113 80//113
f 73//114 80//114 79//114
f 74//115 75//115 81//115
f 74//116 81//116 80//116
f 75//117 71//117 77//117
f 75//118 77//118 81//118
f 82//119 77//119 76//119
f 82//120 76//120 78//120
f 82//121 78//121 79//121
f 82//122 79//122 80//122
f 82//123 80//123 81//123
f 82//124 81//124 77//124
usemtl pigment_ffffffff
f 83//125 84//125 85//125
f 85//126 84//126 86//126
f 85//127 86//127 87//127
f 87//128 86//128 88//128
f 87//129 88//129 89//129
f 89//130 88//130 90//130
f 89//131 90//131 91//131
f 91//132 90//132 92//132
f 93//133 94//133 95//133
f 95//134 94//134 96//134
f 95//135 96//135 97//135
f 97//136 96//136 98//136
f 97//137 98//137 99//137
f 99//138 98//138 100//138
f 99//139 100//139 101//139
f 101//140 100//140 102//140
usemtl pigment_ff000000
f 103//141 104//141 105//141
f 103//142 105//142 106//142
f 104//143 107//143 108//143
f 104//144 108//144 105//144
f 107//145 109//145 110//145
f 107//146 110//146 108//146
f 109//147 111//147 112//147
f 109//148 112//148 110//148
f 111//149 113//149 114//149
f 111//150 114//150 112//150
f 113//151 103//151 106//151
f 113//152 106//152 114//152
f 106//153 105//153 115//153
f 106//154 115//154 116//154
f 105//155 108//155 117//155
f 105//156 117//156 115//156
f 108//157 110//157 118//157
f 108//158 118//158 117//158
f 110//159 112//159 119//159
f 110//160 119//160 118//160
f 112//161 114//161 120//161
f 112//162 120//162 119//162
f 114//163 106//163 116//163
f 114//164 116//164 120//164
f 116//165 115//165 121//165
f 116//166 121//166 122//166
f 115//167 117//167 123//167
f 115//168 123//168 121//168
f 117//169 118//169 124//169
f 117//170 124//170 123//170
f 118//171 119//171 125//171
f 118//172 125//172 124//172
f 119//173 120//173 126//173
f 119//174 126//174 125//174
f 120//175 116//175 122//175
f 120//176 122//176 126//176
f 122//177 121//177 127//177
f 122//178 127//178 128//178
f 121//179 123//179 129//179
f 121//180 129//180 127//180
f 123//181 124//181 130//181
f 123//182 130//182 129//182
f 124//183 125//183 131//183
f 124//184 131//184 130//184
f 125//185 126//185 132//185
f 125//186 132//186 131//186
f 126//187 122//187 128//187
f 126//188 128//188 132//188
f 133//189 128//189 127//189
f 133//190 127//190 129//190
f 133//191 129//191 130//191
f 133//192 130//192 131//192
f 133//193 131//193 132//193
f 133//194 132//194 128//194
usemtl pigment_ffffffff
f 134//195 135//195 136//195
f 136//196 135//196 137//196
f 136//197 137//197 138//197
f 138//198 137//198 139//198
f 138//199 139//199 140//199
f 140//200 139//200 141//200
f 140//201 141//201 142//201
f 142//202 141//202 143//202
f 142//203 143//203 144//203
f 144//204 143//204 145//204
f 146//205 147//205 148//205
f 148//206 147//206 149//206
f 148//207 149//207 150//207
f 150//208 149//208 151//208
f 150//209 151//209 152//209
f 152//210 151//210 153//210
f 152//211 153//211 154//211
f 154//212 153//212 155//212
f 154//213 155//213 156//213
f 156//214 155//214 157//214
usemtl pigment_ff000000
f 158//215 159//215 160//215
f 158//216 160//216 161//216
f 159//217 162//217 163//217
f 159//218 163//218 160//218
f 162//219 164//219 165//219
f 162//220 165//220 163//220
f 164//221 166//221 167//221
f 164//222 167//222 165//222
f 166//223 168//223 169//223
f 166//224 169//224 167//224
f 168//225 158//225 161//225
f 168//226 161//226 169//226
f 161//227 160//227 170//227
f 161//228 170//228 171//228
f 160//229 163//229 172//229
f 160//230 172//230 170//230
f 163//231 165//231 173//231
f 163//232 173//232 172//232
f 165//233 167//233 174//233
f 165//234 174//234 173//234
f 167//235 169//235 175//235
f 167//236 175//236 174//236
f 169//237 161//237 171//237
f 169//238 171//238 175//238
f 171//239 170//239 176//239
f 171//240 176//240 177//240
f 170//241 172//241 178//241
f 170//242 178//242 176//242
f 172//243 173//243 179//243
f 172//244 179//244 178//244
f 173//245 174//245 180//245
f 173//246 180//246 179//246
f 174//247 175//247 181//247
f 174//248 181//248 180//248
f 175//249 171//249 177//249
f 175//250 177//250 181//250
f 177//251 176//251 182//251
f 177//252 182//252 183//252
f 176//253 178//253 184//253
f 176//254 184//254 182//254
f 178//255 179//255 185//255
f 178//256 185//256 184//256
f 179//257 180//257 186//257
f 179//258 186//258 185//258
f 180//259 181//259 187//259
f 180//260 187//260 186//260
f 181//261 177//261 183//261
f 181//262 183//262 187//262
f 188//263 183//263 182//263
f 188//264 182//264 184//264
f 188//265 184//265 185//265
f 188//266 185//266 186//266
f 188//267 186//267 187//267
f 188//268 187//268 183//268
usemtl pigment_ffffffff
f 189//269 190//269 191//269
f 191//270 190//270 192//270
f 191//271 192//271 193//271
f 193//272 192//272 194//272
f 193//273 194//273 195//273
f 195//274 194//274 196//274
f 195//275 196//275 197//275
f 197//276 196//276 198//276
f 199//277 200//277 201//277
f 201//278 200//278 202//278
f 201//279 202//279 203//279
f 203//280 202//280 204//280
f 203//281 204//281 205//281
f 205//282 204//282 206//282
f 205//283 206//283 207//283
f 207//284 206//284 208//284
usemtl pigment_ff000000
f 209//285 210//285 211//285
f 209//286 211//286 212//286
f 210//287 213//287 214//287
f 210//288 214//288 211//288
f 213//289 215//289 216//289
f 213//290 216//290 214//290
f 215//291 217//291 218//291
f 215//292 218//292 216//292
f 217//293 219//293 220//293
f 217//294 220//294 218//294
f 219//295 209//295 212//295
f 219//296 212//296 220//296
f 212//297 211//297 221//297
f 212//298 221//298 222//298
f 211//299 214//299 223//299
f 211//300 223//300 221//300
f 214//301 216//301 224//301
f 214//302 224//302 223//302
f 216//303 218//303 225//303
f 216//304 225//304 224//304
f 218//305 220//305 226//305
f 218//306 226//306 225//306
f 220//307 212//307 222//307
f 220//308 222//308 226//308
f 222//309 221//309 227//309
f 222//310 227//310 228//310
f 221//311 223//311 229//311
f 221//312 229//312 227//312
f 223//313 224//313 230//313
f 223//314 230//314 229//314
f 224//315 225//315 231//315
f 224//316 231//316 230//316
f 225//317 226//317 232//317
f 225//318 232//318 231//318
f 226//319 222//319 228//319
f 226//320 228//320 232//320
f 228//321 227//321 233//321
f 228//322 233//322 234//322
f 227//323 229//323 235//323
f 227//324 235//324 233//324
f 229//325 230//325 236//325
f 229//326 236//326 235//326
f 230//327 231//327 237//327
f 230//328 237//328 236//328
f 231//329 232//329 238//329
f 231//330 238//330 237//330
f 232//331 228//331 234//331
f 232//332 234//332 238//332
f 239//333 234//333 233//333
f 239//334 233//334 235//334
f 239//335 235//335 236//335
f 239//336 236//336 237//336
f 239//337 237//337 238//337
f 239//338 238//338 234//338
usemtl pigment_ffffffff
f 240//339 241//339 242//339
f 242//340 241//340 243//340
f 242//341 243//341 244//341
f 244//342 243//342 245//342
f 244//343 245//343 246//343
f 246//344 245//344 247//344
f 246//345 247//345 248//345
f 248//346 247//346 249//346
f 250//347 251//347 252//347
f 252//348 251//348 253//348
f 252//349 253//349 254//349
f 254//350 253//350 255//350
f 254//351 255//351 256//351
f 256//352 255//352 257//352
f 256//353 257//353 258//353
f 258//354 257//354 259//354
usemtl pigment_ff000000
f 260//355 261//355 262//355
f 260//356 262//356 263//356
f 261//357 264//357 265//357
f 261//358 265//358 262//358
f 264//359 266//359 267//359
f 264//360 267//360 265//360
f 266//361 268//361 269//361
f 266//362 269//362 267//362
f 268//363 270//363 271//363
f 268//364 271//364 269//364
f 270//365 260//365 263//365
f 270//366 263//366 271//366
f 263//367 262//367 272//367
f 263//368 272//368 273//368
f 262//369 265//369 274//369
f 262//370 274//370 272//370
f 265//371 267//371 275//371
f 265//372 275//372 274//372
f 267//373 269//373 276//373
f 267//374 276//374 275//374
f 269//375 271//375 277//375
f 269//376 277//376 276//376
f 271//377 263//377 273//377
f 271//378 273//378 277//378
f 273//379 272//379 278//379
f 273//380 278//380 279//380
f 272//381 274//381 280//381
f 272//382 280//382 278//382
f 274//383 275//383 281//383
f 274//384 281//384 280//384
f 275//385 276//385 282//385
f 275//386 282//386 281//386
f 276//387 277//387 283//387
f 276//388 283//388 282//388
f 277//389 273//389 279//389
f 277//390 279//390 283//390
f 279//391 278//391 284//391
f 279//392 284//392 285//392
f 278//393 280//393 286//393
f 278//394 286//394 284//394
f 280//395 281//395 287//395
f 280//396 287//396 286//396
f 281//397 282//397 288//397
f 281//398 288//398 287//398
f 282//399 283//399 289//399
f 282//400 289//400 288//400
f 283//401 279//401 285//401
f 283//402 285//402 289//402
f 290//403 285//403 284//403
f 290//404 284//404 286//404
f 290//405 286//405 287//405
f 290//406 287//406 288//406
f 290//407 288//407 289//407
f 290//408 289//408 285//408
usemtl pigment_ffffffff
f 291//409 292//409 293//409
f 293//410 292//410 294//410
f 293//411 294//411 295//411
f 295//412 294//412 296//412
f 295//413 296//413 297//413
f 297//414 296//414 298//414
f 297//415 298//415 299//415
f 299//416 298//416 300//416
f 299//417 300//417 301//417
f 301//418 300//418 302//418
f 303//419 304//419 305//419
f 305//420 304//420 306//420
f 305//421 306//421 307//421
f 307//422 306//422 308//422
f 307//423 308//423 309//423
f 309//424 308//424 310//424
f 309//425 310//425 311//425
f 311//426 310//426 312//426
f 311//427 312//427 313//427
f 313//428 312//428 314//428
usemtl pigment_ff000000
f 315//429 316//429 317//429
f 315//430 317//430 318//430
f 316//431 319//431 320//431
f 316//432 320//432 317//432
f 319//433 321//433 322//433
f 319//434 322//434 320//434
f 321//435 323//435 324//435
f 321//436 324//436 322//436
f 323//437 325//437 326//437
f 323//438 326//438 324//438
f 325//439 315//439 318//439
f 325//440 318//440 326//440
f 318//441 317//441 327//441
f 318//442 327//442 328//442
f 317//443 320//443 329//443
f 317//444 329//444 327//444
f 320//445 322//445 330//445
f 320//446 330//446 329//446
f 322//447 324//447 331//447
f 322//448 331//448 330//448
f 324//449 326//449 332//449
f 324//450 332//450 331//450
f 326//451 318//451 328//451
f 326//452 328//452 332//452
f 328//453 327//453 333//453
f 328//454 333//454 334//454
f 327//455 329//455 335//455
f 327//456 335//456 333//456
f 329//457 330//457 336//457
f 329//458 336//458 335//458
f 330//459 331//459 337//459
f 330//460 337//460 336//460
f 331//461 332//461 338//461
f 331//462 338//462 337//462
f 332//463 328//463 334//463
f 332//464 334//464 338//464
f 334//465 333//465 339//465
f 334//466 339//466 340//466
f 333//467 335//467 341//467
f 333//468 341//468 339//468
f 335//469 336//469 342//469
f 335//470 342//470 341//470
f 336//471 337//471 343//471
f 336//472 343//472 342//472
f 337//473 338//473 344//473
f 337//474 344//474 343//474
f 338//475 334//475 340//475
f 338//476 340//476 344//476
f 345//477 340//477 339//477
f 345//478 339//478 341//478
f 345//479 341//479 342//479
f 345//480 342//480 343//480
f 345//481 343//481 344//481
f 345//482 344//482 340//482
usemtl pigment_ffffffff
f 346//483 347//483 348//483
f 348//484 347//484 349//484
f 348//485 349//485 350//485
f 350//486 349//486 351//486
f 350//487 351//487 352//487
f 352//488 351//488 353//488
f 352//489 353//489 354//489
f 354//490 353//490 355//490
f 356//491 357//491 358//491
f 358//492 357//492 359//492
f 358//493 359//493 360//493
f 360//494 359//494 361//494
f 360//495 361//495 362//495
f 362//496 361//496 363//496
f 362//497 363//497 364//497
f 364//498 363//498 365//498
usemtl pigment_ff000000
f 366//499 367//499 368//499
f 366//500 368//500 369//500
f 367//501 370//501 371//501
f 367//502 371//502 368//502
f 370//503 372//503 373//503
f 370//504 373//504 371//504
f 372//505 374//505 375//505
f 372//506 375//506 373//506
f 374//507 376//507 377//507
f 374//508 377//508 375//508
f 376//509 366//509 369//509
f 376//510 369//510 377//510
f 369//511 368//511 378//511
f 369//512 378//512 379//512
f 368//513 371//513 380//513
f 368//514 380//514 378//514
f 371//515 373//515 381//515
f 371//516 381//516 380//516
f 373//517 375//517 382//517
f 373//518 382//518 381//518
f 375//519 377//519 383//519
f 375//520 383//520 382//520
f 377//521 369//521 379//521
f 377//522 379//522 383//522
f 379//523 378//523 384//523
f 379//524 384//524 385//524
f 378//525 380//525 386//525
f 378//526 386//526 384//526
f 380//527 381//527 387//527
f 380//528 387//528 386//528
f 381//529 382//529 388//529
f 381//530 388//530 387//530
f 382//531 383//531 389//531
f 382//532 389//532 388//532
f 383//533 379//533 385//533
f 383//534 385//534 389//534
f 385//535 384//535 390//535
f 385//536 390//536 391//536
f 384//537 386//537 392//537
f 384//538 392//538 390//538
f 386//539 387//539 393//539
f 386//540 393//540 392//540
f 387//541 388//541 394//541
f 387//542 394//542 393//542
f 388//543 389//543 395//543
f 388//544 395//544 394//544
f 389//545 385//545 391//545
f 389//546 391//546 395//546
f 396//547 391//547 390//547
f 396//548 390//548 392//548
f 396//549 392//549 393//549
f 396//550 393//550 394//550
f 396//551 394//551 395//551
f 396//552 395//552 391//552
usemtl pigment_ffffffff
f 397//553 398//553 399//553
f 399//554 398//554 400//554
f 399//555 400//555 401//555
f 401//556 400//556 402//556
f 401//557 402//557 403//557
f 403//558 402//558 404//558
f 403//559 404//559 405//559
f 405//560 404//560 406//560
f 407//561 408//561 409//561
f 409//562 408//562 410//562
f 409//563 410//563 411//563
f 411//564 410//564 412//564
f 411//565 412//565 413//565
f 413//566 412//566 414//566
f 413//567 414//567 415//567
f 415//568 414//568 416//568
usemtl pigment_ff000000
f 417//569 418//569 419//569
f 417//570 419//570 420//570
f 418//571 421//571 422//571
f 418//572 422//572 419//572
f 421//573 423//573 424//573
f 421//574 424//574 422//574
f 423//575 425//575 426//575
f 423//576 426//576 424//576
f 425//577 427//577 428//577
f 425//578 428//578 426//578
f 427//579 417//579 420//579
f 427//580 420//580 428//580
f 420//581 419//581 429//581
f 420//582 429//582 430//582
f 419//583 422//583 431//583
f 419//584 431//584 429//584
f 422//585 424//585 432//585
f 422//586 432//586 431//586
f 424//587 426//587 433//587
f 424//588 433//588 432//588
f 426//589 428//589 434//589
f 426//590 434//590 433//590
f 428//591 420//591 430//591
f 428//592 430//592 434//592
f 430//593 429//593 435//593
f 430//594 435//594 436//594
f 429//595 431//595 437//595
f 429//596 437//596 435//596
f 431//597 432//597 438//597
f 431//598 438//598 437//598
f 432//599 433//599 439//599
f 432//600 439//600 438//600
f 433//601 434//601 440//601
f 433//602 440//602 439//602
f 434//603 430//603 436//603
f 434//604 436//604 440//604
f 436//605 435//605 441//605
f 436//606 441//606 442//606
f 435//607 437//607 443//607
f 435//608 443//608 441//608
f 437//609 438//609 444//609
f 437//610 444//610 443//610
f 438//611 439//611 445//611
f 438//612 445//612 444//612
f 439//613 440//613 446//613
f 439//614 446//614 445//614
f 440//615 436//615 442//615
f 440//616 442//616 446//616
f 447//617 442//617 441//617
f 447//618 441//618 443//618
f 447//619 443//619 444//619
f 447//620 444//620 445//620
f 447//621 445//621 446//621
f 447//622 446//622 442//622
usemtl pigment_ffffffff
f 448//623 449//623 450//623
f 450//624 449//624 451//624
f 450//625 451//625 452//625
f 452//626 451//626 453//626
f 452//627 453//627 454//627
f 454//628 453//628 455//628
f 454//629 455//629 456//629
f 456//630 455//630 457//630
f 456//631 457//631 458//631
f 458//632 457//632 459//632
f 460//633 461//633 462//633
f 462//634 461//634 463//634
f 462//635 463//635 464//635
f 464//636 463//636 465//636
f 464//637 465//637 466//637
f 466//638 465//638 467//638
f 466//639 467//639 468//639
f 468//640 467//640 469//640
f 468//641 469//641 470//641
f 470//642 469//642 471//642
usemtl pigment_ff000000
f 472//643 473//643 474//643
f 472//644 474//644 475//644
f 473//645 476//645 477//645
f 473//646 477//646 474//646
f 476//647 478//647 479//647
f 476//648 479//648 477//648
f 478//649 480//649 481//649
f 478//650 481//650 479//650
f 480//651 482//651 483//651
f 480//652 483//652 481//652
f 482//653 472//653 475//653
f 482//654 475//654 483//654
f 475//655 474//655 484//655
f 475//656 484//656 485//656
f 474//657 477//657 486//657
f 474//658 486//658 484//658
f 477//659 479//659 487//659
f 477//660 487//660 486//660
f 479//661 481//661 488//661
f 479//662 488//662 487//662
f 481//663 483//663 489//663
f 481//664 489//664 488//664
f 483//665 475//665 485//665
f 483//666 485//666 489//666
f 485//667 484//667 490//667
f 485//668 490//668 491//668
f 484//669 486//669 492//669
f 484//670 492//670 490//670
f 486//671 487//671 493//671
f 486//672 493//672 492//672
f 487//673 488//673 494//673
f 487//674 494//674 493//674
f 488//675 489//675 495//675
f 488//676 495//676 494//676
f 489//677 485//677 491//677
f 489//678 491//678 495//678
f 491//679 490//679 496//679
f 491//680 496//680 497//680
f 490//681 492//681 498//681
f 490//682 498//682 496//682
f 492//683 493//683 499//683
f 492//684 499//684 498//684
f 493//685 494//685 500//685
f 493//686 500//686 499//686
f 494//687 495//687 501//687
f 494//688 501//688 500//688
f 495//689 491//689 497//689
f 495//690 497//690 501//690
f 502//691 497//691 496//691
f 502//692 496//692 498//692
f 502//693 498//693 499//693
f 502//694 499//694 500//694
f 502//695 500//695 501//695
f 502//696 501//696 497//696
usemtl pigment_ffffffff
f 503//697 504//697 505//697
f 505//698 504//698 506//698
f 505//699 506//699 507//699
f 507//700 506//700 508//700
f 507//701 508//701 509//701
f 509//702 508//702 510//702
f 509//703 510//703 511//703
f 511//704 510//704 512//704
f 513//705 514//705 515//705
f 515//706 514//706 516//706
f 515//707 516//707 517//707
f 517//708 516//708 518//708
f 517//709 518//709 519//709
f 519//710 518//710 520//710
f 519//711 520//711 521//711
f 521//712 520//712 522//712
usemtl pigment_ff000000
f 523//713 524//713 525//713
f 523//714 525//714 526//714
f 524//715 527//715 528//715
f 524//716 528//716 525//716
f 527//717 529//717 530//717
f 527//718 530//718 528//718
f 529//719 531//719 532//719
f 529//720 532//720 530//720
f 531//721 533//721 534//721
f 531//722 534//722 532//722
f 533//723 523//723 526//723
f 533//724 526//724 534//724
f 526//725 525//725 535//725
f 526//726 535//726 536//726
f 525//727 528//727 537//727
f 525//728 537//728 535//728
f 528//729 530//729 538//729
f 528//730 538//730 537//730
f 530//731 532//731 539//731
f 530//732 539//732 538//732
f 532//733 534//733 540//733
f 532//734 540//734 539//734
f 534//735 526//735 536//735
f 534//736 536//736 540//736
f 536//737 535//737 541//737
f 536//738 541//738 542//738
f 535//739 537//739 543//739
f 535//740 543//740 541//740
f 537//741 538//741 544//741
f 537//742 544//742 543//742
f 538//743 539//743 545//743
f 538//744 545//744 544//744
f 539//745 540//745 546//745
f 539//746 546//746 545//746
f 540//747 536//747 542//747
f 540//748 542//748 546//748
f 542//749 541//749 547//749
f 542//750 547//750 548//750
f 541//751 543//751 549//751
f 541//752 549//752 547//752
f 543//753 544//753 550//753
f 543//754 550//754 549//754
f 544//755 545//755 551//755
f 544//756 551//756 550//756
f 545//757 546//757 552//757
f 545//758 552//758 551//758
f 546//759 542//759 548//759
f 546//760 548//760 552//760
f 553//761 548//761 547//761
f 553//762 547//762 549//762
f 553//763 549//763 550//763
f 553//764 550//764 551//764
f 553//765 551//765 552//765
f 553//766 552//766 548//766
usemtl pigment_ffffffff
f 554//767 555//767 556//767
f 556//768 555//768 557//768
f 556//769 557//769 558//769
f 558//770 557//770 559//770
f 558//771 559//771 560//771
f 560//772 559//772 561//772
f 560//773 561//773 562//773
f 562//774 561//774 563//774
f 564//775 565//775 566//775
f 566//776 565//776 567//776
f 566//777 567//777 568//777
f 568//778 567//778 569//778
f 568//779 569//779 570//779
f 570//780 569//780 571//780
f 570//781 571//781 572//781
f 572//782 571//782 573//782
usemtl pigment_ff000000
f 574//783 575//783 576//783
f 574//784 576//784 577//784
f 575//785 578//785 579//785
f 575//786 579//786 576//786
f 578//787 580//787 581//787
f 578//788 581//788 579//788
f 580//789 582//789 583//789
f 580//790 583//790 581//790
f 582//791 584//791 585//791
f 582//792 585//792 583//792
f 584//793 574//793 577//793
f 584//794 577//794 585//794
f 577//795 576//795 586//795
f 577//796 586//796 587//796
f 576//797 579//797 588//797
f 576//798 588//798 586//798
f 579//799 581//799 589//799
f 579//800 589//800 588//800
f 581//801 583//801 590//801
f 581//802 590//802 589//802
f 583//803 585//803 591//803
f 583//804 591//804 590//804
f 585//805 577//805 587//805
f 585//806 587//806 591//806
f 587//807 586//807 592//807
f 587//808 592//808 593//808
f 586//809 588//809 594//809
f 586//810 594//810 592//810
f 588//811 589//811 595//811
f 588//812 595//812 594//812
f 589//813 590//813 596//813
f 589//814 596//814 595//814
f 590//815 591//815 597//815
f 590//816 597//816 596//816
f 591//817 587//817 593//817
f 591//818 593//818 597//818
f 593//819 592//819 598//819
f 593//820 598//820 599//820
f 592//821 594//821 600//821
f 592//822 600//822 598//822
f 594//823 595//823 601//823
f 594//824 601//824 600//824
f 595//825 596//825 602//825
f 595//826 602//826 601//826
f 596//827 597//827 603//827
f 596//828 603//828 602//828
f 597//829 593//829 599//829
f 597//830 599//830 603//830
f 604//831 599//831 598//831
f 604//832 598//832 600//832
f 604//833 600//833 601//833
f 604//834 601//834 602//834
f 604//835 602//835 603//835
f 604//836 603//836 599//836
usemtl pigment_ffffffff
f 605//837 606//837 607//837
f 607//838 606//838 608//838
f 607//839 608//839 609//839
f 609//840 608//840 610//840
f 609//841 610//841 611//841
f 611//842 610//842 612//842
f 611//843 612//843 613//843
f 613//844 612//844 614//844
f 613//845 614//845 615//845
f 615//846 614//846 616//846
f 617//847 618//847 619//847
f 619//848 618//848 620//848
f 619//849 620//849 621//849
f 621//850 620//850 622//850
f 621//851 622//851 623//851
f 623//852 622//852 624//852
f 623//853 624//853 625//853
f 625//854 624//854 626//854
f 625//855 626//855 627//855
f 627//856 626//856 628//856
usemtl pigment_ff000000
f 629//857 630//857 631//857
f 629//858 631//858 632//858
f 630//859 633//859 634//859
f 630//860 634//860 631//860
f 633//861 635//861 636//861
f 633//862 636//862 634//862
f 635//863 637//863 638//863
f 635//864 638//864 636//864
f 637//865 639//865 640//865
f 637//866 640//866 638//866
f 639//867 629//867 632//867
f 639//868 632//868 640//868
f 632//869 631//869 641//869
f 632//870 641//870 642//870
f 631//871 634//871 643//871
f 631//872 643//872 641//872
f 634//873 636//873 644//873
f 634//874 644//874 643//874
f 636//875 638//875 645//875
f 636//876 645//876 644//876
f 638//877 640//877 646//877
f 638//878 646//878 645//878
f 640//879 632//879 642//879
f 640//880 642//880 646//880
f 642//881 641//881 647//881
f 642//882 647//882 648//882
f 641//883 643//883 649//883
f 641//884 649//884 647//884
f 643//885 644//885 650//885
f 643//886 650//886 649//886
f 644//887 645//887 651//887
f 644//888 651//888 650//888
f 645//889 646//889 652//889
f 645//890 652//890 651//890
f 646//891 642//891 648//891
f 646//892 648//892 652//892
f 648//893 647//893 653//893
f 648//894 653//894 654//894
f 647//895 649//895 655//895
f 647//896 655//896 653//896
f 649//897 650//897 656//897
f 649//898 656//898 655//898
f 650//899 651//899 657//899
f 650//900 657//900 656//900
f 651//901 652//901 658//901
f 651//902 658//902 657//902
f 652//903 648//903 654//903
f 652//904 654//904 658//904
f 659//905 654//905 653//905
f 659//906 653//906 655//906
f 659//907 655//907 656//907
f 659//908 656//908 657//908
f 659//909 657//909 658//909
f 659//910 658//910 654//910
usemtl pigment_ffffffff
f 660//911 661//911 662//911
f 662//912 661//912 663//912
f 662//913 663//913 664//913
f 664//914 663//914 665//914
f 664//915 665//915 666//915
f 666//916 665//916 667//916
f 666//917 667//917 668//917
f 668//918 667//918 669//918
f 670//919 671//919 672//919
f 672//920 671//920 673//920
f 672//921 673//921 674//921
f 674//922 673//922 675//922
f 674//923 675//923 676//923
f 676//924 675//924 677//924
f 676//925 677//925 678//925
f 678//926 677//926 679//926
usemtl pigment_ff000000
f 680//927 681//927 682//927
f 680//928 682//928 683//928
f 681//929 684//929 685//929
f 681//930 685//930 682//930
f 684//931 686//931 687//931
f 684//932 687//932 685//932
f 686//933 688//933 689//933
f 686//934 689//934 687//934
f 688//935 690//935 691//935
f 688//936 691//936 689//936
f 690//937 680//937 683//937
f 690//938 683//938 691//938
f 683//939 682//939 692//939
f 683//940 692//940 693//940
f 682//941 685//941 694//941
f 682//942 694//942 692//942
f 685//943 687//943 695//943
f 685//944 695//944 694//944
f 687//945 689//945 696//945
f 687//946 696//946 695//946
f 689//947 691//947 697//947
f 689//948 697//948 696//948
f 691//949 683//949 693//949
f 691//950 693//950 697//950
f 693//951 692//951 698//951
f 693//952 698//952 699//952
f 692//953 694//953 700//953
f 692//954 700//954 698//954
f 694//955 695//955 701//955
f 694//956 701//956 700//956
f 695//957 696//957 702//957
f 695//958 702//958 701//958
f 696//959 697//959 703//959
f 696//960 703//960 702//960
f 697//961 693//961 699//961
f 697//962 699//962 703//962
f 699//963 698//963 704//963
f 699//964 704//964 705//964
f 698//965 700//965 706//965
f 698//966 706//966 704//966
f 700//967 701//967 707//967
f 700//968 707//968 706//968
f 701//969 702//969 708//969
f 701//970 708//970 707//970
f 702//971 703//971 709//971
f 702//972 709//972 708//972
f 703//973 699//973 705//973
f 703//974 705//974 709//974
f 710//975 705//975 704//975
f 710//976 704//976 706//976
f 710//977 706//977 707//977
f 710//978 707//978 708//978
f 710//979 708//979 709//979
f 710//980 709//980 705//980
usemtl pigment_ffffffff
f 711//981 712//981 713//981
f 713//982 712//982 714//982
f 713//983 714//983 715//983
f 715//984 714//984 716//984
f 715//985 716//985 717//985
f 717//986 716//986 718//986
f 717//987 718//987 719//987
f 719//988 718//988 720//988
f 721//989 722//989 723//989
f 723//990 722//990 724//990
f 723//991 724//991 725//991
f 725//992 724//992 726//992
f 725//993 726//993 727//993
f 727//994 726//994 728//994
f 727//995 728//995 729//995
f 729//996 728//996 730//996
usemtl pigment_ff000000
f 731//997 732//997 733//997
f 734//998 735//998 736//998
f 733//999 737//999 731//999
f 736//1000 738//1000 734//1000
f 732//1001 733//1001 736//1001
f 732//1002 736//1002 735//1002
f 733//1003 737//1003 738//1003
f 733//1004 738//1004 736//1004
f 737//1005 731//1005 734//1005
f 737//1006 734//1006 738//1006
f 731//1007 732//1007 735//1007
f 731//1008 735//1008 734//1008
f 739//1009 740//1009 741//1009
f 742//1010 743//1010 744//1010
f 741//1011 745//1011 739//1011
f 744//1012 746//1012 742//1012
f 740//1013 741//1013 744//1013
f 740//1014 744//1014 743//1014
f 741//1015 745//1015 746//1015
f 741//1016 746//1016 744//1016
f 745//1017 739//1017 742//1017
f 745//1018 742//1018 746//1018
f 739//1019 740//1019 743//1019
f 739//1020 743//1020 742//1020
f 747//1021 748//1021 749//1021
f 750//1022 751//1022 752//1022
f 749//1023 753//1023 747//1023
f 752//1024 754//1024 750//1024
f 748//1025 749//1025 752//1025
f 748//1026 752//1026 751//1026
f 749//1027 753//1027 754//1027
f 749//1028 754//1028 752//1028
f 753//1029 747//1029 750//1029
f 753//1030 750//1030 754//1030
f 747//1031 748//1031 751//1031
f 747//1032 751//1032 750//1032
f 755//1033 756//1033 757//1033
f 758//1034 759//1034 760//1034
f 757//1035 761//1035 755//1035
f 760//1036 762//1036 758//1036
f 756//1037 757//1037 760//1037
f 756//1038 760//1038 759//1038
f 757//1039 761//1039 762//1039
f 757//1040 762//1040 760//1040
f 761//1041 755//1041 758//1041
f 761//1042 758//1042 762//1042
f 755//1043 756//1043 759//1043
f 755//1044 759//1044 758//1044
f 763//1045 764//1045 765//1045
f 766//1046 767//1046 768//1046
f 765//1047 769//1047 763//1047
f 768//1048 770//1048 766//1048
f 764//1049 765//1049 768//1049
f 764//1050 768//1050 767//1050
f 765//1051 769//1051 770//1051
f 765//1052 770//1052 768//1052
f 769//1053 763//1053 766//1053
f 769//1054 766//1054 770//1054
f 763//1055 764//1055 767//1055
f 763//1056 767//1056 766//1056
f 771//1057 772//1057 773//1057
f 774//1058 775//1058 776//1058
f 773//1059 777//1059 771//1059
f 776//1060 778//1060 774//1060
f 772//1061 773//1061 776//1061
f 772//1062 776//1062 775//1062
f 773//1063 777//1063 778//1063
f 773//1064 778//1064 776//1064
f 777//1065 771//1065 774//1065
f 777//1066 774//1066 778//1066
f 771//1067 772//1067 775//1067
f 771//1068 775//1068 774//1068
f 779//1069 780//1069 781//1069
f 782//1070 783//1070 784//1070
f 781//1071 785//1071 779//1071
f 784//1072 786//1072 782//1072
f 780//1073 781//1073 784//1073
f 780//1074 784//1074 783//1074
f 781//1075 785//1075 786//1075
f 781//1076 786//1076 784//1076
f 785//1077 779//1077 782//1077
f 785//1078 782//1078 786//1078
f 779//1079 780//1079 783//1079
f 779//1080 783//1080 782//1080
f 787//1081 788//1081 789//1081
f 790//1082 791//1082 792//1082
f 789//1083 793//1083 787//1083
f 792//1084 794//1084 790//1084
f 788//1085 789//1085 792//1085
f 788//1086 792//1086 791//1086
f 789//1087 793//1087 794//1087
f 789//1088 794//1088 792//1088
f 793//1089 787//1089 790//1089
f 793//1090 790//1090 794//1090
f 787//1091 788//1091 791//1091
f 787//1092 791//1092 790//1092
f 795//1093 796//1093 797//1093
f 798//1094 799//1094 800//1094
f 797//1095 801//1095 795//1095
f 800//1096 802//1096 798//1096
f 796//1097 797//1097 800//1097
f 796//1098 800//1098 799//1098
f 797//1099 801//1099 802//1099
f 797//1100 802//1100 800//1100
f 801//1101 795//1101 798//1101
f 801//1102 798//1102 802//1102
f 795//1103 796//1103 799//1103
f 795//1104 799//1104 798//1104
f 803//1105 804//1105 805//1105
f 806//1106 807//1106 808//1106
f 805//1107 809//1107 803//1107
f 808//1108 810//1108 806//1108
f 804//1109 805//1109 808//1109
f 804//1110 808//1110 807//1110
f 805//1111 809//1111 810//1111
f 805//1112 810//1112 808//1112
f 809//1113 803//1113 806//1113
f 809//1114 806//1114 810//1114
f 803//1115 804//1115 807//1115
f 803//1116 807//1116 806//1116
f 811//1117 812//1117 813//1117
f 814//1118 815//1118 816//1118
f 813//1119 817//1119 811//1119
f 816//1120 818//1120 814//1120
f 812//1121 813//1121 816//1121
f 812//1122 816//1122 815//1122
f 813//1123 817//1123 818//1123
f 813//1124 818//1124 816//1124
f 817//1125 811//1125 814//1125
f 817//1126 814//1126 818//1126
f 811//1127 812//1127 815//1127
f 811//1128 815//1128 814//1128
f 819//1129 820//1129 821//1129
f 822//1130 823//1130 824//1130
f 821//1131 825//1131 819//1131
f 824//1132 826//1132 822//1132
f 820//1133 821//1133 824//1133
f 820//1134 824//1134 823//1134
f 821//1135 825//1135 826//1135
f 821//1136 826//1136 824//1136
f 825//1137 819//1137 822//1137
f 825//1138 822//1138 826//1138
f 819//1139 820//1139 823//1139
f 819//1140 823//1140 822//1140
f 827//1141 828//1141 829//1141
f 830//1142 831//1142 832//1142
f 829//1143 833//1143 827//1143
f 832//1144 834//1144 830//1144
f 828//1145 829//1145 832//1145
f 828//1146 832//1146 831//1146
f 829//1147 833//1147 834//1147
f 829//1148 834//1148 832//1148
f 833//1149 827//1149 830//1149
f 833//1150 830//1150 834//1150
f 827//1151 828//1151 831//1151
f 827//1152 831//1152 830//1152
f 835//1153 836//1153 837//1153
f 838//1154 839//1154 840//1154
f 837//1155 841//1155 835//1155
f 840//1156 842//1156 838//1156
f 836//1157 837//1157 840//1157
f 836//1158 840//1158 839//1158
f 837//1159 841//1159 842//1159
f 837//1160 842//1160 840//1160
f 841//1161 835//1161 838//1161
f 841//1162 838//1162 842//1162
f 835//1163 836//1163 839//1163
f 835//1164 839//1164 838//1164
f 843//1165 844//1165 845//1165
f 846//1166 847//1166 848//1166
f 845//1167 849//1167 843//1167
f 848//1168 850//1168 846//1168
f 844//1169 845//1169 848//1169
f 844//1170 848//1170 847//1170
f 845//1171 849//1171 850//1171
f 845//1172 850//1172 848//1172
f 849//1173 843//1173 846//1173
f 849//1174 846//1174 850//1174
f 843//1175 844//1175 847//1175
f 843//1176 847//1176 846//1176
f 851//1177 852//1177 853//1177
f 854//1178 855//1178 856//1178
f 853//1179 857//1179 851//1179
f 856//1180 858//1180 854//1180
f 852//1181 853//1181 856//1181
f 852//1182 856//1182 855//1182
f 853//1183 857//1183 858//1183
f 853//1184 858//1184 856//1184
f 857//1185 851//1185 854//1185
f 857//1186 854//1186 858//1186
f 851//1187 852//1187 855//1187
f 851//1188 855//1188 854//1188
f 859//1189 860//1189 861//1189
f 862//1190 863//1190 864//1190
f 861//1191 865//1191 859//1191
f 864//1192 866//1192 862//1192
f 860//1193 861//1193 864//1193
f 860//1194 864//1194 863//1194
f 861//1195 865//1195 866//1195
f 861//1196 866//1196 864//1196
f 865//1197 859//1197 862//1197
f 865//1198 862//1198 866//1198
f 859//1199 860//1199 863//1199
f 859//1200 863//1200 862//1200
f 867//1201 868//1201 869//1201
f 870//1202 871//1202 872//1202
f 869//1203 873//1203 867//1203
f 872//1204 874//1204 870//1204
f 868//1205 869//1205 872//1205
f 868//1206 872//1206 871//1206
f 869//1207 873//1207 874//1207
f 869//1208 874//1208 872//1208
f 873//1209 867//1209 870//1209
f 873//1210 870//1210 874//1210
f 867//1211 868//1211 871//1211
f 867//1212 871//1212 870//1212
f 875//1213 876//1213 877//1213
f 878//1214 879//1214 880//1214
f 877//1215 881//1215 875//1215
f 880//1216 882//1216 878//1216
f 876//1217 877//1217 880//1217
f 876//1218 880//1218 879//1218
f 877//1219 881//1219 882//1219
f 877//1220 882//1220 880//1220
f 881//1221 875//1221 878//1221
f 881//1222 878//1222 882//1222
f 875//1223 876//1223 879//1223
f 875//1224 879//1224 878//1224
f 883//1225 884//1225 885//1225
f 886//1226 887//1226 888//1226
f 885//1227 889//1227 883//1227
f 888//1228 890//1228 886//1228
f 884//1229 885//1229 888//1229
f 884//1230 888//1230 887//1230
f 885//1231 889//1231 890//1231
f 885//1232 890//1232 888//1232
f 889//1233 883//1233 886//1233
f 889//1234 886//1234 890//1234
f 883//1235 884//1235 887//1235
f 883//1236 887//1236 886//1236
f 891//1237 892//1237 893//1237
f 894//1238 895//1238 896//1238
f 893//1239 897//1239 891//1239
f 896//1240 898//1240 894//1240
f 892//1241 893//1241 896//1241
f 892//1242 896//1242 895//1242
f 893//1243 897//1243 898//1243
f 893//1244 898//1244 896//1244
f 897//1245 891//1245 894//1245
f 897//1246 894//1246 898//1246
f 891//1247 892//1247 895//1247
f 891//1248 895//1248 894//1248
f 899//1249 900//1249 901//1249
f 902//1250 903//1250 904//1250
f 901//1251 905//1251 899//1251
f 904//1252 906//1252 902//1252
f 900//1253 901//1253 904//1253
f 900//1254 904//1254 903//1254
f 901//1255 905//1255 906//1255
f 901//1256 906//1256 904//1256
f 905//1257 899//1257 902//1257
f 905//1258 902//1258 906//1258
f 899//1259 900//1259 903//1259
f 899//1260 903//1260 902//1260
f 907//1261 908//1261 909//1261
f 910//1262 911//1262 912//1262
f 909//1263 913//1263 907//1263
f 912//1264 914//1264 910//1264
f 908//1265 909//1265 912//1265
f 908//1266 912//1266 911//1266
f 909//1267 913//1267 914//1267
f 909//1268 914//1268 912//1268
f 913//1269 907//1269 910//1269
f 913//1270 910//1270 914//1270
f 907//1271 908//1271 911//1271
f 907//1272 911//1272 910//1272
f 915//1273 916//1273 917//1273
f 918//1274 919//1274 920//1274
f 917//1275 921//1275 915//1275
f 920//1276 922//1276 918//1276
f 916//1277 917//1277 920//1277
f 916//1278 920//1278 919//1278
f 917//1279 921//1279 922//1279
f 917//1280 922//1280 920//1280
f 921//1281 915//1281 918//1281
f 921//1282 918//1282 922//1282
f 915//1283 916//1283 919//1283
f 915//1284 919//1284 918//1284
f 923//1285 924//1285 925//1285
f 926//1286 927//1286 928//1286
f 925//1287 929//1287 923//1287
f 928//1288 930//1288 926//1288
f 924//1289 925//1289 928//1289
f 924//1290 928//1290 927//1290
f 925//1291 929//1291 930//1291
f 925//1292 930//1292 928//1292
f 929//1293 923//1293 926//1293
f 929//1294 926//1294 930//1294
f 923//1295 924//1295 927//1295
f 923//1296 927//1296 926//1296
f 931//1297 932//1297 933//1297
f 934//1298 935//1298 936//1298
f 933//1299 937//1299 931//1299
f 936//1300 938//1300 934//1300
f 932//1301 933//1301 936//1301
f 932//1302 936//1302 935//1302
f 933//1303 937//1303 938//1303
f 933//1304 938//1304 936//1304
f 937//1305 931//1305 934//1305
f 937//1306 934//1306 938//1306
f 931//1307 932//1307 935//1307
f 931//1308 935//1308 934//1308
f 939//1309 940//1309 941//1309
f 942//1310 943//1310 944//1310
f 941//1311 945//1311 939//1311
f 944//1312 946//1312 942//1312
f 940//1313 941//1313 944//1313
f 940//1314 944//1314 943//1314
f 941//1315 945//1315 946//1315
f 941//1316 946//1316 944//1316
f 945//1317 939//1317 942//1317
f 945//1318 942//1318 946//1318
f 939//1319 940//1319 943//1319
f 939//1320 943//1320 942//1320
f 947//1321 948//1321 949//1321
f 950//1322 951//1322 952//1322
f 949//1323 953//1323 947//1323
f 952//1324 954//1324 950//1324
f 948//1325 949//1325 952//1325
f 948//1326 952//1326 951//1326
f 949//1327 953//1327 954//1327
f 949//1328 954//1328 952//1328
f 953//1329 947//1329 950//1329
f 953//1330 950//1330 954//1330
f 947//1331 948//1331 951//1331
f 947//1332 951//1332 950//1332
f 955//1333 956//1333 957//1333
f 958//1334 959//1334 960//1334
f 957//1335 961//1335 955//1335
f 960//1336 962//1336 958//1336
f 956//1337 957//1337 960//1337
f 956//1338 960//1338 959//1338
f 957//1339 961//1339 962//1339
f 957//1340 962//1340 960//1340
f 961//1341 955//1341 958//1341
f 961//1342 958//1342 962//1342
f 955//1343 956//1343 959//1343
f 955//1344 959//1344 958//1344
f 963//1345 964//1345 965//1345
f 966//1346 967//1346 968//1346
f 965//1347 969//1347 963//1347
f 968//1348 970//1348 966//1348
f 964//1349 965//1349 968//1349
f 964//1350 968//1350 967//1350
f 965//1351 969//1351 970//1351
f 965//1352 970//1352 968//1352
f 969//1353 963//1353 966//1353
f 969//1354 966//1354 970//1354
f 963//1355 964//1355 967//1355
f 963//1356 967//1356 966//1356
f 971//1357 972//1357 973//1357
f 974//1358 975//1358 976//1358
f 973//1359 977//1359 971//1359
f 976//1360 978//1360 974//1360
f 972//1361 973//1361 976//1361
f 972//1362 976//1362 975//1362
f 973//1363 977//1363 978//1363
f 973//1364 978//1364 976//1364
f 977//1365 971//1365 974//1365
f 977//1366 974//1366 978//1366
f 971//1367 972//1367 975//1367
f 971//1368 975//1368 974//1368
f 979//1369 980//1369 981//1369
f 982//1370 983//1370 984//1370
f 981//1371 985//1371 979//1371
f 984//1372 986//1372 982//1372
f 980//1373 981//1373 984//1373
f 980//1374 984//1374 983//1374
f 981//1375 985//1375 986//1375
f 981//1376 986//1376 984//1376
f 985//1377 979//1377 982//1377
f 985//1378 982//1378 986//1378
f 979//1379 980//1379 983//1379
f 979//1380 983//1380 982//1380
f 987//1381 988//1381 989//1381
f 990//1382 991//1382 992//1382
f 989//1383 993//1383 987//1383
f 992//1384 994//1384 990//1384
f 988//1385 989//1385 992//1385
f 988//1386 992//1386 991//1386
f 989//1387 993//1387 994//1387
f 989//1388 994//1388 992//1388
f 993//1389 987//1389 990//1389
f 993//1390 990//1390 994//1390
f 987//1391 988//1391 991//1391
f 987//1392 991//1392 990//1392
f 995//1393 996//1393 997//1393
f 998//1394 999//1394 1000//1394
f 997//1395 1001//1395 995//1395
f 1000//1396 1002//1396 998//1396
f 996//1397 997//1397 1000//1397
f 996//1398 1000//1398 999//1398
f 997//1399 1001//1399 1002//1399
f 997//1400 1002//1400 1000//1400
f 1001//1401 995//1401 998//1401
f 1001//1402 998//1402 1002//1402
f 995//1403 996//1403 999//1403
f 995//1404 999//1404 998//1404
f 1003//1405 1004//1405 1005//1405
f 1006//1406 1007//1406 1008//1406
f 1005//1407 1009//1407 1003//1407
f 1008//1408 1010//1408 1006//1408
f 1004//1409 1005//1409 1008//1409
f 1004//1410 1008//1410 1007//1410
f 1005//1411 1009//1411 1010//1411
f 1005//1412 1010//1412 1008//1412
f 1009//1413 1003//1413 1006//1413
f 1009//1414 1006//1414 1010//1414
f 1003//1415 1004//1415 1007//1415
f 1003//1416 1007//1416 1006//1416
f 1011//1417 1012//1417 1013//1417
f 1014//1418 1015//1418 1016//1418
f 1013//1419 1017//1419 1011//1419
f 1016//1420 1018//1420 1014//1420
f 1012//1421 1013//1421 1016//1421
f 1012//1422 1016//1422 1015//1422
f 1013//1423 1017//1423 1018//1423
f 1013//1424 1018//1424 1016//1424
f 1017//1425 1011//1425 1014//1425
f 1017//1426 1014//1426 1018//1426
f 1011//1427 1012//1427 1015//1427
f 1011//1428 1015//1428 1014//1428
