# Kabbalah adventure: red-figure
# Roy figure drawing; asymmetric solid volume; hidden depth and back are reconstructed.
# Actual runtime triangles; +Y up; metres; no image planes or textures.
# Base inks are semantic materials. The game maps them to its discrete lighting palette.
mtllib red-figure.mtl
v -0.137766 0 0.258686
v 0.137766 0 0.258686
v 0.226649 0.12 0.352597
v -0.186649 0.12 0.352597
v 0.336089 0 0.100343
v 0.524133 0.12 0.149012
v 0.331382 0 -0.109405
v 0.517073 0.12 -0.120663
v 0.134858 0 -0.259611
v 0.222288 0.12 -0.313786
v -0.146425 0 -0.255793
v -0.199638 0.12 -0.308876
v -0.333786 0 -0.10489
v -0.480679 0.12 -0.114858
v -0.331382 0 0.109405
v -0.477073 0.12 0.160663
v 0.191956 0.35 0.369552
v -0.251956 0.35 0.369552
v 0.511477 0.35 0.143347
v 0.503893 0.35 -0.156293
v 0.187272 0.35 -0.370874
v -0.265907 0.35 -0.365418
v -0.567767 0.35 -0.149843
v -0.563893 0.35 0.156293
v 0.181342 0.62 0.353358
v -0.201342 0.62 0.353358
v 0.45679 0.62 0.155429
v 0.450252 0.62 -0.106756
v 0.177303 0.62 -0.294514
v -0.213368 0.62 -0.289741
v -0.473592 0.62 -0.101112
v -0.470252 0.62 0.166756
v 0.124554 1.11 0.287925
v -0.204554 1.11 0.287925
v 0.36144 1.11 0.123927
v 0.355817 1.11 -0.093312
v 0.121081 1.11 -0.248883
v -0.214897 1.11 -0.244928
v -0.438689 1.11 -0.088636
v -0.435817 1.11 0.133312
v 0.166034 1.39 0.334119
v -0.186034 1.39 0.334119
v 0.419447 1.39 0.141845
v 0.413432 1.39 -0.112849
v 0.162319 1.39 -0.295243
v -0.197099 1.39 -0.290606
v -0.436505 1.39 -0.107366
v -0.433432 1.39 0.152849
v 0.158995 1.6 0.347977
v -0.238995 1.64 0.347977
v 0.445462 1.525 0.147221
v 0.438663 1.595 -0.11871
v 0.154795 1.56 -0.30915
v -0.251503 1.66 -0.304309
v -0.522136 1.61 -0.112985
v -0.518663 1.555 0.15871
v 0.023939 1.76 0.269448
v -0.243939 1.76 0.269448
v 0.216753 1.76 0.116759
v 0.212177 1.76 -0.085497
v 0.021112 1.76 -0.23034
v -0.252358 1.76 -0.226657
v -0.434514 1.76 -0.081144
v -0.432177 1.76 0.125497
v 0 0 0
v -0.11 1.76 0.02
v -0.260112 1.42 0.329448
v 0.000112 1.42 0.329448
v 0.020727 1.83 0.352597
v -0.300727 1.83 0.352597
v 0.187417 1.42 0.176759
v 0.252104 1.83 0.149012
v 0.182972 1.42 -0.025497
v 0.246612 1.83 -0.120663
v -0.002634 1.42 -0.17034
v 0.017335 1.83 -0.313786
v -0.26829 1.42 -0.166657
v -0.310829 1.83 -0.308876
v -0.445242 1.42 -0.021144
v -0.529417 1.83 -0.114858
v -0.442972 1.42 0.185497
v -0.526612 1.83 0.160663
v -0.029022 2.15 0.298686
v -0.250978 2.15 0.298686
v 0.130738 2.15 0.140343
v 0.126946 2.15 -0.069405
v -0.031364 2.15 -0.219611
v -0.257954 2.15 -0.215793
v -0.408883 2.15 -0.06489
v -0.406946 2.15 0.149405
v -0.049637 2.38 0.204776
v -0.210364 2.38 0.204776
v 0.066052 2.38 0.091674
v 0.063306 2.38 -0.058146
v -0.051333 2.38 -0.165437
v -0.215415 2.38 -0.162709
v -0.324709 2.38 -0.054921
v -0.323306 2.38 0.098146
v -0.061732 2.47 0.100865
v -0.138268 2.47 0.100865
v -0.006642 2.47 0.033004
v -0.007949 2.47 -0.056888
v -0.062539 2.47 -0.121262
v -0.140674 2.47 -0.119625
v -0.192718 2.47 -0.054953
v -0.192051 2.47 0.036888
v -0.13 1.42 0.08
v -0.1 2.47 -0.01
v 0.242597 1.57 0.132492
v 0.357403 1.57 0.132492
v 0.396537 2.03 0.104776
v 0.243463 2.03 0.104776
v 0.440037 1.57 0.002425
v 0.506716 2.03 -0.008326
v 0.438076 1.57 -0.169868
v 0.504101 2.03 -0.158146
v 0.356191 1.57 -0.293252
v 0.394921 2.03 -0.265437
v 0.238989 1.57 -0.290116
v 0.238653 2.03 -0.262709
v 0.160922 1.57 -0.166159
v 0.134563 2.03 -0.154921
v 0.161924 1.57 0.009868
v 0.135899 2.03 -0.001854
v 0.433576 2.38 0.029343
v 0.326424 2.38 0.029343
v 0.510701 2.38 -0.049828
v 0.508871 2.38 -0.154702
v 0.432445 2.38 -0.229806
v 0.323057 2.38 -0.227896
v 0.250194 2.38 -0.152445
v 0.251129 2.38 -0.045298
v 0.380182 2.63 -0.008373
v 0.299818 2.63 -0.008373
v 0.438026 2.63 -0.07058
v 0.436653 2.63 -0.15298
v 0.379334 2.63 -0.21199
v 0.297293 2.63 -0.21049
v 0.242646 2.63 -0.151207
v 0.243347 2.63 -0.06702
v 0.294874 2.7 -0.030709
v 0.245126 2.7 -0.030709
v 0.330683 2.7 -0.073122
v 0.329833 2.7 -0.129305
v 0.294349 2.7 -0.169539
v 0.243562 2.7 -0.168516
v 0.209733 2.7 -0.128096
v 0.210167 2.7 -0.070695
v 0.3 1.57 -0.08
v 0.27 2.7 -0.1
v -0.20673 1.91 0.339619
v -0.124705 1.88 0.344673
v -0.046643 1.94 0.334565
v -0.039211 2.11 0.305925
v -0.064218 2.15 0.299186
v -0.226563 2.15 0.299186
v -0.251399 1.99 0.326141
v -0.079854 2.18 0.286937
v -0.160777 2.2 0.278771
vn 0 -0.616297 0.787514
vn 0 -0.616297 0.787514
vn 0.381401 -0.791414 0.4777
vn 0.386751 -0.72873 0.565134
vn 0.542203 -0.840159 -0.012168
vn 0.540491 -0.84123 -0.014151
vn 0.47393 -0.625227 -0.620066
vn 0.401993 -0.679623 -0.613607
vn -0.012387 -0.409107 -0.912402
vn -0.010639 -0.404995 -0.914257
vn -0.482065 -0.639822 -0.598532
vn -0.48372 -0.524458 -0.700685
vn -0.634259 -0.773088 0.007117
vn -0.632968 -0.774134 0.008286
vn -0.461007 -0.655718 0.597918
vn -0.384876 -0.716038 0.582374
vn 0 -0.073519 0.997294
vn 0 -0.073519 0.997294
vn 0.564019 0.051338 0.824164
vn 0.577599 0.026979 0.815875
vn 0.998244 0.053154 -0.026137
vn 0.998205 0.054308 -0.025264
vn 0.543825 -0.123242 -0.8301
vn 0.558448 -0.095646 -0.824007
vn -0.011291 -0.241777 -0.970266
vn -0.011678 -0.242554 -0.970068
vn -0.537836 -0.322147 -0.779073
vn -0.545499 -0.34495 -0.763833
vn -0.935571 -0.352926 0.012247
vn -0.935735 -0.352506 0.011841
vn -0.538692 -0.213048 0.81512
vn -0.553696 -0.193618 0.809897
vn 0 0.05987 0.998206
vn 0 0.05987 0.998206
vn 0.575946 0.08025 0.813539
vn 0.582048 0.071465 0.810008
vn 0.97965 0.199174 -0.024795
vn 0.979593 0.199502 -0.024427
vn 0.543646 0.246934 -0.802167
vn 0.548005 0.255031 -0.796649
vn -0.011583 0.271957 -0.96224
vn -0.011758 0.271717 -0.962305
vn -0.548614 0.33 -0.768195
vn -0.555467 0.32287 -0.766297
vn -0.944868 0.327232 0.011956
vn -0.944806 0.327418 0.011779
vn -0.55769 0.153472 0.815738
vn -0.562418 0.163646 0.810497
vn 0 0.132361 0.991202
vn 0 0.132361 0.991202
vn 0.575684 0.16353 0.801153
vn 0.560618 0.173107 0.809779
vn 0.981511 0.189833 -0.024475
vn 0.981576 0.189375 -0.025405
vn 0.561136 0.14035 -0.815738
vn 0.547874 0.12827 -0.826669
vn -0.012167 0.09103 -0.995774
vn -0.011722 0.091383 -0.995747
vn -0.585759 0.062299 -0.808087
vn -0.571044 0.072998 -0.817668
vn -0.997403 0.070942 0.012435
vn -0.997413 0.070717 0.012906
vn -0.566929 0.105382 0.816998
vn -0.553256 0.095362 0.827535
vn 0 -0.162778 0.986663
vn 0 -0.162778 0.986663
vn 0.56111 -0.168112 0.81049
vn 0.590208 -0.215769 0.777881
vn 0.978814 -0.203176 -0.025333
vn 0.979238 -0.201388 -0.023126
vn 0.539606 -0.214278 -0.814193
vn 0.578646 -0.174653 -0.796659
vn -0.011619 -0.160275 -0.987004
vn -0.012731 -0.161506 -0.98679
vn -0.571846 -0.050312 -0.818817
vn -0.605298 -0.090536 -0.790833
vn -0.999887 0.007614 0.012939
vn -0.999893 0.008591 0.011806
vn -0.553009 -0.099888 0.827166
vn -0.590261 -0.051181 0.805588
vn 0 -0.065848 0.99783
vn -0.005683 -0.056547 0.998384
vn 0.597916 -0.146598 0.788039
vn 0.567336 -0.035277 0.82273
vn 0.992157 -0.122779 -0.023431
vn 0.979787 -0.185862 -0.073975
vn 0.587205 -0.040151 -0.808442
vn 0.562579 -0.092727 -0.821527
vn -0.012882 -0.053272 -0.998497
vn -0.032277 -0.082915 -0.996034
vn -0.588685 -0.24878 -0.769128
vn -0.551518 -0.152749 -0.820058
vn -0.888268 -0.459205 0.010488
vn -0.929589 -0.363401 -0.061681
vn -0.582684 -0.167521 0.795246
vn -0.479316 -0.277169 0.832727
vn 0.047448 0.472096 0.880269
vn 0 0.547582 0.836752
vn 0.554783 0.612867 0.56268
vn 0.45943 0.672557 0.580166
vn 0.596154 0.780044 0.190086
vn 0.717591 0.696275 -0.016237
vn 0.413155 0.559341 -0.718638
vn 0.429392 0.703414 -0.56642
vn 0.140331 0.607997 -0.781439
vn -0.012565 0.359307 -0.933135
vn -0.565102 0.473515 -0.675606
vn -0.534875 0.515355 -0.669566
vn -0.911945 0.399732 0.092576
vn -0.864336 0.502819 0.009778
vn -0.592457 0.423902 0.685056
vn -0.566903 0.359267 0.741315
vn 0 -1 0
vn 0 -1 0
vn 0 -1 0
vn 0 -1 0
vn 0 -1 0
vn 0 -1 0
vn 0 -1 0
vn 0 -1 0
vn 0 1 0
vn 0 1 0
vn 0 1 0
vn 0 1 0
vn 0 1 0
vn 0 1 0
vn 0 1 0
vn 0 1 0
vn 0 -0.056371 0.99841
vn 0 -0.056371 0.99841
vn 0.631142 -0.04718 0.774231
vn 0.658698 -0.075387 0.748621
vn 0.987159 -0.158263 -0.021698
vn 0.987372 -0.15714 -0.020107
vn 0.588325 -0.29242 -0.753899
vn 0.620766 -0.267417 -0.736979
vn -0.013089 -0.328903 -0.944273
vn -0.014124 -0.329595 -0.944017
vn -0.607197 -0.293434 -0.738383
vn -0.630705 -0.311919 -0.710575
vn -0.97989 -0.199246 0.010768
vn -0.979967 -0.198911 0.009977
vn -0.615129 -0.105053 0.781396
vn -0.645136 -0.085619 0.759256
vn 0 0.166129 0.986104
vn 0 0.166129 0.986104
vn 0.6376 0.261453 0.724644
vn 0.686174 0.22331 0.692314
vn 0.935476 0.352877 -0.01905
vn 0.935029 0.354168 -0.016904
vn 0.613019 0.307475 -0.727782
vn 0.644769 0.349968 -0.679555
vn -0.014355 0.281467 -0.959464
vn -0.016177 0.28002 -0.959858
vn -0.623217 0.344386 -0.702139
vn -0.672909 0.306964 -0.673028
vn -0.936498 0.350544 0.009535
vn -0.936217 0.351322 0.008462
vn -0.631169 0.223267 0.742818
vn -0.66515 0.273186 0.694943
vn 0 0.37801 0.925801
vn 0 0.37801 0.925801
vn 0.664786 0.328899 0.670734
vn 0.658868 0.334225 0.673933
vn 0.96342 0.267428 -0.017417
vn 0.96347 0.267235 -0.017658
vn 0.670691 0.224728 -0.706875
vn 0.666681 0.219338 -0.71234
vn -0.016408 0.227736 -0.973585
vn -0.016184 0.227907 -0.973548
vn -0.679172 0.278003 -0.679293
vn -0.673637 0.282237 -0.683049
vn -0.939145 0.343416 0.008488
vn -0.939171 0.343342 0.008606
vn -0.638171 0.384933 0.666756
vn -0.6348 0.380697 0.672383
vn 0 0.75589 0.654699
vn 0 0.75589 0.654699
vn 0.48677 0.717741 0.4979
vn 0.596818 0.639587 0.484496
vn 0.783844 0.620792 -0.014366
vn 0.781493 0.62381 -0.011367
vn 0.624656 0.40538 -0.667437
vn 0.650275 0.522552 -0.551436
vn -0.014912 0.441783 -0.896998
vn -0.018819 0.438649 -0.898462
vn -0.489239 0.717324 -0.496075
vn -0.565639 0.687642 -0.455193
vn -0.563863 0.825852 0.005167
vn -0.56336 0.826201 0.004097
vn -0.401016 0.811645 0.424757
vn -0.414161 0.840985 0.34816
vn 0 -1 0
vn 0 -1 0
vn 0 -1 0
vn 0 -1 0
vn 0 -1 0
vn 0 -1 0
vn 0 -1 0
vn 0 -1 0
vn 0 1 0
vn 0 1 0
vn 0 1 0
vn 0 1 0
vn 0 1 0
vn 0 1 0
vn 0 1 0
vn 0 1 0
vn 0 0.060144 0.99819
vn 0 0.060144 0.99819
vn 0.839016 -0.109161 0.533044
vn 0.716174 -0.018892 0.697666
vn 0.989833 -0.141787 -0.011268
vn 0.989452 -0.143829 -0.017271
vn 0.832645 -0.036691 -0.55259
vn 0.69854 -0.08215 -0.71084
vn -0.026707 0.059433 -0.997875
vn -0.017419 0.06181 -0.997936
vn -0.845637 -0.035446 -0.53258
vn -0.71874 0.040826 -0.694079
vn -0.998395 -0.056341 0.005683
vn -0.998312 -0.057419 0.008712
vn -0.834917 0.034667 0.549284
vn -0.703849 -0.021728 0.710018
vn 0 0.210685 0.977554
vn 0 0.210685 0.977554
vn 0.714318 0.07438 0.695858
vn 0.714318 0.07438 0.695858
vn 0.999757 -0.013453 -0.017451
vn 0.999757 -0.013453 -0.017451
vn 0.700907 -0.002534 -0.713248
vn 0.700906 -0.002534 -0.713249
vn -0.01736 0.103106 -0.994519
vn -0.017359 0.103106 -0.994519
vn -0.699068 0.235731 -0.675082
vn -0.699068 0.235731 -0.675082
vn -0.949508 0.313634 0.008286
vn -0.949508 0.313635 0.008286
vn -0.670533 0.304719 0.676411
vn -0.670533 0.304719 0.676411
vn 0 0.149177 0.98881
vn 0 0.149177 0.98881
vn 0.692205 0.257196 0.674316
vn 0.708901 0.250853 0.659191
vn 0.960553 0.277591 -0.016767
vn 0.960481 0.277885 -0.016003
vn 0.687333 0.195864 -0.699436
vn 0.70171 0.207398 -0.681608
vn -0.017412 0.067661 -0.997556
vn -0.018242 0.067214 -0.997572
vn -0.71922 -0.018276 -0.694542
vn -0.734973 -0.028573 -0.677494
vn -0.999501 -0.030356 0.008722
vn -0.999509 -0.030221 0.008326
vn -0.703649 0.032202 0.709817
vn -0.719823 0.037817 0.693126
vn 0 0.303982 0.952678
vn 0 0.303982 0.952678
vn 0.481072 0.753962 0.447338
vn 0.504617 0.750905 0.426032
vn 0.546669 0.837299 -0.009108
vn 0.546351 0.837515 -0.008265
vn 0.438747 0.791121 -0.426178
vn 0.442555 0.807348 -0.3903
vn -0.015778 0.505263 -0.862821
vn -0.017405 0.502932 -0.86415
vn -0.729867 -0.121043 -0.672787
vn -0.75142 -0.199675 -0.628887
vn -0.903756 -0.427982 0.007529
vn -0.904068 -0.427334 0.006839
vn -0.681686 -0.323171 0.656403
vn -0.716557 -0.306751 0.626458
vn 0 -1 0
vn 0 -1 0
vn 0 -1 0
vn 0 -1 0
vn 0 -1 0
vn 0 -1 0
vn 0 -1 0
vn 0 -1 0
vn 0 1 0
vn 0 1 0
vn 0 1 0
vn 0 1 0
vn 0 1 0
vn 0 1 0
vn 0 1 0
vn 0 1 0
vn 0 0.166129 0.986104
vn 0 0.166128 0.986104
vn 0 0.166129 0.986104
vn 0 0.166129 0.986104
vn 0.000002 0.166129 0.986104
vn 0 0.378011 0.925801
vn 0 0.37801 0.925801
s off
g figure
usemtl pigment_ff000080
f 1//1 2//1 3//1
f 1//2 3//2 4//2
f 2//3 5//3 6//3
f 2//4 6//4 3//4
f 5//5 7//5 8//5
f 5//6 8//6 6//6
f 7//7 9//7 10//7
f 7//8 10//8 8//8
f 9//9 11//9 12//9
f 9//10 12//10 10//10
f 11//11 13//11 14//11
f 11//12 14//12 12//12
f 13//13 15//13 16//13
f 13//14 16//14 14//14
f 15//15 1//15 4//15
f 15//16 4//16 16//16
f 4//17 3//17 17//17
f 4//18 17//18 18//18
f 3//19 6//19 19//19
f 3//20 19//20 17//20
f 6//21 8//21 20//21
f 6//22 20//22 19//22
f 8//23 10//23 21//23
f 8//24 21//24 20//24
f 10//25 12//25 22//25
f 10//26 22//26 21//26
f 12//27 14//27 23//27
f 12//28 23//28 22//28
f 14//29 16//29 24//29
f 14//30 24//30 23//30
f 16//31 4//31 18//31
f 16//32 18//32 24//32
f 18//33 17//33 25//33
f 18//34 25//34 26//34
f 17//35 19//35 27//35
f 17//36 27//36 25//36
f 19//37 20//37 28//37
f 19//38 28//38 27//38
f 20//39 21//39 29//39
f 20//40 29//40 28//40
f 21//41 22//41 30//41
f 21//42 30//42 29//42
f 22//43 23//43 31//43
f 22//44 31//44 30//44
f 23//45 24//45 32//45
f 23//46 32//46 31//46
f 24//47 18//47 26//47
f 24//48 26//48 32//48
f 26//49 25//49 33//49
f 26//50 33//50 34//50
f 25//51 27//51 35//51
f 25//52 35//52 33//52
f 27//53 28//53 36//53
f 27//54 36//54 35//54
f 28//55 29//55 37//55
f 28//56 37//56 36//56
f 29//57 30//57 38//57
f 29//58 38//58 37//58
f 30//59 31//59 39//59
f 30//60 39//60 38//60
f 31//61 32//61 40//61
f 31//62 40//62 39//62
f 32//63 26//63 34//63
f 32//64 34//64 40//64
f 34//65 33//65 41//65
f 34//66 41//66 42//66
f 33//67 35//67 43//67
f 33//68 43//68 41//68
f 35//69 36//69 44//69
f 35//70 44//70 43//70
f 36//71 37//71 45//71
f 36//72 45//72 44//72
f 37//73 38//73 46//73
f 37//74 46//74 45//74
f 38//75 39//75 47//75
f 38//76 47//76 46//76
f 39//77 40//77 48//77
f 39//78 48//78 47//78
f 40//79 34//79 42//79
f 40//80 42//80 48//80
f 42//81 41//81 49//81
f 42//82 49//82 50//82
f 41//83 43//83 51//83
f 41//84 51//84 49//84
f 43//85 44//85 52//85
f 43//86 52//86 51//86
f 44//87 45//87 53//87
f 44//88 53//88 52//88
f 45//89 46//89 54//89
f 45//90 54//90 53//90
f 46//91 47//91 55//91
f 46//92 55//92 54//92
f 47//93 48//93 56//93
f 47//94 56//94 55//94
f 48//95 42//95 50//95
f 48//96 50//96 56//96
f 50//97 49//97 57//97
f 50//98 57//98 58//98
f 49//99 51//99 59//99
f 49//100 59//100 57//100
f 51//101 52//101 60//101
f 51//102 60//102 59//102
f 52//103 53//103 61//103
f 52//104 61//104 60//104
f 53//105 54//105 62//105
f 53//106 62//106 61//106
f 54//107 55//107 63//107
f 54//108 63//108 62//108
f 55//109 56//109 64//109
f 55//110 64//110 63//110
f 56//111 50//111 58//111
f 56//112 58//112 64//112
f 65//113 2//113 1//113
f 65//114 5//114 2//114
f 65//115 7//115 5//115
f 65//116 9//116 7//116
f 65//117 11//117 9//117
f 65//118 13//118 11//118
f 65//119 15//119 13//119
f 65//120 1//120 15//120
f 66//121 58//121 57//121
f 66//122 57//122 59//122
f 66//123 59//123 60//123
f 66//124 60//124 61//124
f 66//125 61//125 62//125
f 66//126 62//126 63//126
f 66//127 63//127 64//127
f 66//128 64//128 58//128
f 67//129 68//129 69//129
f 67//130 69//130 70//130
f 68//131 71//131 72//131
f 68//132 72//132 69//132
f 71//133 73//133 74//133
f 71//134 74//134 72//134
f 73//135 75//135 76//135
f 73//136 76//136 74//136
f 75//137 77//137 78//137
f 75//138 78//138 76//138
f 77//139 79//139 80//139
f 77//140 80//140 78//140
f 79//141 81//141 82//141
f 79//142 82//142 80//142
f 81//143 67//143 70//143
f 81//144 70//144 82//144
f 70//145 69//145 83//145
f 70//146 83//146 84//146
f 69//147 72//147 85//147
f 69//148 85//148 83//148
f 72//149 74//149 86//149
f 72//150 86//150 85//150
f 74//151 76//151 87//151
f 74//152 87//152 86//152
f 76//153 78//153 88//153
f 76//154 88//154 87//154
f 78//155 80//155 89//155
f 78//156 89//156 88//156
f 80//157 82//157 90//157
f 80//158 90//158 89//158
f 82//159 70//159 84//159
f 82//160 84//160 90//160
f 84//161 83//161 91//161
f 84//162 91//162 92//162
f 83//163 85//163 93//163
f 83//164 93//164 91//164
f 85//165 86//165 94//165
f 85//166 94//166 93//166
f 86//167 87//167 95//167
f 86//168 95//168 94//168
f 87//169 88//169 96//169
f 87//170 96//170 95//170
f 88//171 89//171 97//171
f 88//172 97//172 96//172
f 89//173 90//173 98//173
f 89//174 98//174 97//174
f 90//175 84//175 92//175
f 90//176 92//176 98//176
f 92//177 91//177 99//177
f 92//178 99//178 100//178
f 91//179 93//179 101//179
f 91//180 101//180 99//180
f 93//181 94//181 102//181
f 93//182 102//182 101//182
f 94//183 95//183 103//183
f 94//184 103//184 102//184
f 95//185 96//185 104//185
f 95//186 104//186 103//186
f 96//187 97//187 105//187
f 96//188 105//188 104//188
f 97//189 98//189 106//189
f 97//190 106//190 105//190
f 98//191 92//191 100//191
f 98//192 100//192 106//192
f 107//193 68//193 67//193
f 107//194 71//194 68//194
f 107//195 73//195 71//195
f 107//196 75//196 73//196
f 107//197 77//197 75//197
f 107//198 79//198 77//198
f 107//199 81//199 79//199
f 107//200 67//200 81//200
f 108//201 100//201 99//201
f 108//202 99//202 101//202
f 108//203 101//203 102//203
f 108//204 102//204 103//204
f 108//205 103//205 104//205
f 108//206 104//206 105//206
f 108//207 105//207 106//207
f 108//208 106//208 100//208
f 109//209 110//209 111//209
f 109//210 111//210 112//210
f 110//211 113//211 114//211
f 110//212 114//212 111//212
f 113//213 115//213 116//213
f 113//214 116//214 114//214
f 115//215 117//215 118//215
f 115//216 118//216 116//216
f 117//217 119//217 120//217
f 117//218 120//218 118//218
f 119//219 121//219 122//219
f 119//220 122//220 120//220
f 121//221 123//221 124//221
f 121//222 124//222 122//222
f 123//223 109//223 112//223
f 123//224 112//224 124//224
f 112//225 111//225 125//225
f 112//226 125//226 126//226
f 111//227 114//227 127//227
f 111//228 127//228 125//228
f 114//229 116//229 128//229
f 114//230 128//230 127//230
f 116//231 118//231 129//231
f 116//232 129//232 128//232
f 118//233 120//233 130//233
f 118//234 130//234 129//234
f 120//235 122//235 131//235
f 120//236 131//236 130//236
f 122//237 124//237 132//237
f 122//238 132//238 131//238
f 124//239 112//239 126//239
f 124//240 126//240 132//240
f 126//241 125//241 133//241
f 126//242 133//242 134//242
f 125//243 127//243 135//243
f 125//244 135//244 133//244
f 127//245 128//245 136//245
f 127//246 136//246 135//246
f 128//247 129//247 137//247
f 128//248 137//248 136//248
f 129//249 130//249 138//249
f 129//250 138//250 137//250
f 130//251 131//251 139//251
f 130//252 139//252 138//252
f 131//253 132//253 140//253
f 131//254 140//254 139//254
f 132//255 126//255 134//255
f 132//256 134//256 140//256
f 134//257 133//257 141//257
f 134//258 141//258 142//258
f 133//259 135//259 143//259
f 133//260 143//260 141//260
f 135//261 136//261 144//261
f 135//262 144//262 143//262
f 136//263 137//263 145//263
f 136//264 145//264 144//264
f 137//265 138//265 146//265
f 137//266 146//266 145//266
f 138//267 139//267 147//267
f 138//268 147//268 146//268
f 139//269 140//269 148//269
f 139//270 148//270 147//270
f 140//271 134//271 142//271
f 140//272 142//272 148//272
f 149//273 110//273 109//273
f 149//274 113//274 110//274
f 149//275 115//275 113//275
f 149//276 117//276 115//276
f 149//277 119//277 117//277
f 149//278 121//278 119//278
f 149//279 123//279 121//279
f 149//280 109//280 123//280
f 150//281 142//281 141//281
f 150//282 141//282 143//282
f 150//283 143//283 144//283
f 150//284 144//284 145//284
f 150//285 145//285 146//285
f 150//286 146//286 147//286
f 150//287 147//287 148//287
f 150//288 148//288 142//288
usemtl pigment_ffffffff
f 151//289 152//289 153//289
f 151//290 153//290 154//290
f 151//291 154//291 155//291
f 151//292 155//292 156//292
f 156//293 157//293 151//293
f 156//294 155//294 158//294
f 158//295 159//295 156//295
